<svg version="1.1" xmlns="http://www.w3.org/2000/svg" viewBox="0 0 2102.819326012038 1473.8626779829883" width="2102.819326012038" height="1473.8626779829883">
  <!-- svg-source:excalidraw -->
  
  <defs>
    <style>
      @font-face {
        font-family: "Virgil";
        src: url("https://excalidraw.com/Virgil.woff2");
      }
      @font-face {
        font-family: "Cascadia";
        src: url("https://excalidraw.com/Cascadia.woff2");
      }
    </style>
  </defs>
  <rect x="0" y="0" width="2102.819326012038" height="1473.8626779829883" fill="#ffffff"></rect><g transform="translate(343.80304410936606 419.3810918322416) rotate(0 269.77164256637457 209.93902145243152)" stroke="none"><path fill="#5c940d" d="M 1.58,0 Q 1.58,0 1.62,1.81 1.65,3.62 1.60,8.61 1.56,13.61 1.52,18.75 1.49,23.89 1.46,29.69 1.44,35.50 1.42,44.61 1.40,53.71 0.18,63.11 -1.04,72.50 -2.16,85.47 -3.28,98.45 -4.37,110.02 -5.46,121.59 -6.52,130.74 -7.59,139.89 -8.65,149.81 -9.71,159.72 -10.16,167.53 -10.60,175.33 -11.40,182.92 -12.20,190.51 -13.14,200.35 -14.08,210.19 -14.48,218.57 -14.88,226.95 -15.66,235.39 -16.43,243.82 -17.97,256.46 -19.51,269.11 -21.38,280.53 -23.24,291.96 -24.02,301.58 -24.81,311.21 -26.35,323.20 -27.90,335.18 -29.16,346.29 -30.42,357.40 -32.16,368.79 -33.91,380.18 -35.87,388.68 -37.82,397.18 -39.25,405.56 -40.67,413.94 -41.88,423.53 -43.09,433.12 -43.60,440.19 -44.11,447.26 -44.94,452.74 -45.77,458.22 -46.73,462.98 -47.68,467.73 -48.08,470.90 -48.48,474.07 -48.75,475.72 -49.02,477.37 -48.02,477.78 -47.02,478.19 -43.86,478.45 -40.70,478.72 -36.25,478.89 -31.80,479.07 -27.48,479.15 -23.17,479.24 -18.32,479.28 -13.47,479.32 -4.77,479.34 3.93,479.37 14.26,479.38 24.60,479.39 36.17,478.20 47.74,477.00 61.75,475.89 75.77,474.78 86.57,474.30 97.37,473.83 106.79,473.63 116.22,473.43 127.47,473.35 138.72,473.26 150.71,472.62 162.70,471.99 179.91,471.71 197.11,471.44 209.25,471.33 221.38,471.21 230.21,471.77 239.03,472.32 248.17,472.56 257.31,472.79 265.46,473.50 273.62,474.21 283.12,475.11 292.61,476.01 308.09,477.00 323.57,477.98 334.36,478.40 345.16,478.82 354.57,479.00 363.98,479.18 372.20,479.25 380.43,479.33 387.54,479.36 394.66,479.39 401.30,479.41 407.95,479.42 416.21,479.43 424.46,479.43 429.78,479.44 435.10,479.44 439.78,479.44 444.45,479.44 449.46,479.44 454.46,479.44 459.01,479.44 463.55,479.44 468.65,480.67 473.75,481.89 479.51,483.62 485.27,485.35 489.52,486.69 493.77,488.03 496.72,488.58 499.68,489.14 500.90,489.96 502.12,490.78 501.97,489.18 501.82,487.58 501.96,483.23 502.11,478.88 502.19,470.97 502.27,463.06 502.31,455.47 502.36,447.88 503.60,439.73 504.85,431.57 507.19,420.26 509.54,408.96 512.35,395.72 515.16,382.48 518.79,370.16 522.41,357.85 524.54,347.26 526.67,336.67 528.18,329.73 529.70,322.78 530.94,313.25 532.18,303.71 533.92,292.98 535.66,282.24 537.61,271.64 539.56,261.04 541.59,247.51 543.62,233.97 546.31,220.34 548.99,206.70 551.94,194.85 554.90,183.00 556.74,170.79 558.59,158.59 560.59,149.11 562.59,139.64 565.26,130.15 567.93,120.67 570.26,108.26 572.58,95.85 574.18,86.94 575.77,78.03 577.05,70.62 578.34,63.21 580.70,53.38 583.06,43.55 584.67,36.38 586.27,29.21 586.94,24.41 587.61,19.60 587.90,15.76 588.19,11.93 588.31,9.69 588.43,7.45 588.48,5.31 588.53,3.16 588.56,1.04 588.58,-1.06 588.59,-3.77 588.60,-6.48 588.60,-10.65 588.60,-14.82 588.61,-18.41 588.61,-21.99 588.61,-27.13 588.61,-32.28 588.61,-36.88 588.61,-41.48 588.61,-44.04 588.61,-46.60 588.53,-48.29 588.44,-49.98 588.34,-51.30 588.23,-52.62 588.13,-53.79 588.04,-54.96 587.96,-56.05 587.87,-57.15 587.13,-58.68 586.39,-60.20 586.42,-60.48 586.46,-60.76 586.56,-61.02 586.66,-61.29 586.82,-61.52 586.97,-61.75 587.18,-61.93 587.39,-62.12 587.64,-62.25 587.89,-62.38 588.16,-62.45 588.44,-62.51 588.72,-62.51 589.00,-62.51 589.27,-62.45 589.54,-62.38 589.79,-62.25 590.04,-62.12 590.25,-61.93 590.46,-61.75 590.62,-61.52 590.78,-61.29 590.88,-61.02 590.98,-60.76 591.01,-60.48 591.04,-60.20 590.60,-59.18 590.15,-58.15 588.67,-56.69 587.19,-55.22 586.56,-53.56 585.94,-51.91 583.44,-50.83 580.95,-49.75 573.11,-50.05 565.27,-50.35 554.81,-51.13 544.36,-51.91 532.11,-52.25 519.87,-52.60 504.40,-52.76 488.93,-52.92 474.51,-52.99 460.09,-53.07 447.25,-54.32 434.42,-55.57 419.27,-58.53 404.12,-61.49 392.30,-63.34 380.49,-65.20 371.23,-66.59 361.98,-67.99 352.67,-68.58 343.36,-69.17 335.73,-70.03 328.09,-70.89 320.68,-71.25 313.26,-71.61 303.48,-71.77 293.69,-71.92 285.96,-71.39 278.22,-70.85 271.32,-70.02 264.43,-69.20 255.48,-67.64 246.53,-66.09 238.52,-64.22 230.52,-62.36 223.46,-60.96 216.40,-59.56 206.76,-57.75 197.12,-55.95 189.35,-55.18 181.58,-54.40 174.70,-53.48 167.82,-52.55 162.44,-52.15 157.05,-51.75 152.34,-51.58 147.63,-51.41 141.46,-50.74 135.29,-50.07 129.59,-49.78 123.89,-49.49 118.45,-49.37 113.01,-49.25 108.28,-49.20 103.56,-49.14 100.31,-49.13 97.07,-49.11 94.25,-50.36 91.43,-51.61 88.68,-52.07 85.93,-52.53 80.36,-54.59 74.79,-56.65 69.44,-58.72 64.10,-60.79 59.45,-62.26 54.81,-63.73 49.32,-64.33 43.83,-64.94 39.07,-65.20 34.31,-65.47 29.87,-65.58 25.44,-65.69 21.14,-65.74 16.84,-65.79 14.41,-65.81 11.97,-65.83 9.57,-66.47 7.16,-67.10 4.42,-67.97 1.67,-68.84 0.90,-68.06 0.12,-67.27 0.10,-66.10 0.08,-64.93 -0.69,-62.90 -1.46,-60.88 -1.75,-59.07 -2.04,-57.27 -2.09,-55.87 -2.14,-54.46 -2.11,-53.28 -2.09,-52.10 -2.20,-49.80 -2.32,-47.51 -2.29,-45.92 -2.26,-44.33 -2.29,-42.45 -2.31,-40.57 -2.39,-36.75 -2.47,-32.93 -2.52,-29.50 -2.58,-26.06 -2.62,-22.79 -2.66,-19.52 -2.69,-16.93 -2.72,-14.33 -2.74,-12.02 -2.77,-9.71 -2.73,-8.26 -2.70,-6.81 -1.24,-5.73 0.22,-4.65 0.53,-3.27 0.85,-1.88 1.13,-1.69 1.40,-1.51 1.61,-1.24 1.81,-0.98 1.92,-0.66 2.03,-0.35 2.04,-0.01 2.04,0.31 1.93,0.63 1.83,0.95 1.63,1.22 1.43,1.48 1.16,1.67 0.88,1.86 0.56,1.96 0.24,2.05 -0.09,2.03 -0.42,2.02 -0.73,1.90 -1.05,1.78 -1.30,1.56 -1.56,1.35 -1.73,1.06 -1.91,0.78 -1.98,0.45 -2.06,0.12 -2.03,-0.20 -1.99,-0.53 -1.85,-0.84 -1.72,-1.14 -1.49,-1.39 -1.26,-1.63 -0.97,-1.79 -0.67,-1.95 -0.34,-2.01 -0.01,-2.06 0.31,-2.01 0.64,-1.96 0.94,-1.81 1.23,-1.65 1.46,-1.41 1.70,-1.17 1.84,-0.87 1.98,-0.57 2.02,-0.23 2.06,0.09 1.99,0.42 1.92,0.74 1.75,1.03 1.58,1.32 1.33,1.54 1.08,1.76 0.77,1.88 0.46,2.01 0.12,2.03 -0.20,2.05 -0.52,1.97 -0.85,1.88 -0.85,1.88 -0.85,1.88 -1.80,-0.14 -2.76,-2.17 -3.55,-3.07 -4.34,-3.98 -5.01,-5.12 -5.69,-6.27 -5.66,-7.99 -5.62,-9.71 -5.64,-12.02 -5.67,-14.33 -5.69,-16.93 -5.72,-19.52 -5.76,-22.79 -5.81,-26.07 -5.86,-29.50 -5.92,-32.93 -5.99,-36.75 -6.06,-40.57 -6.08,-42.46 -6.10,-44.35 -6.05,-45.95 -6.00,-47.54 -6.07,-49.91 -6.14,-52.27 -6.01,-53.53 -5.88,-54.79 -5.68,-56.28 -5.48,-57.78 -5.17,-59.96 -4.87,-62.14 -4.26,-63.81 -3.66,-65.48 -3.25,-67.32 -2.85,-69.16 -1.89,-70.08 -0.93,-70.99 0.68,-71.17 2.29,-71.36 5.07,-70.50 7.85,-69.64 9.93,-69.05 12.01,-68.46 14.44,-68.44 16.87,-68.42 21.19,-68.37 25.51,-68.32 29.98,-68.21 34.45,-68.09 39.29,-67.82 44.13,-67.55 49.86,-66.89 55.60,-66.24 60.32,-64.74 65.04,-63.24 70.37,-61.18 75.70,-59.11 81.05,-57.12 86.39,-55.12 89.46,-54.56 92.52,-54.00 94.84,-52.86 97.16,-51.71 100.35,-51.74 103.53,-51.77 108.24,-51.82 112.95,-51.87 118.36,-51.99 123.76,-52.12 129.38,-52.40 135.01,-52.68 141.27,-53.36 147.54,-54.04 152.20,-54.21 156.86,-54.37 162.17,-54.76 167.47,-55.16 174.40,-56.09 181.32,-57.02 188.98,-57.78 196.64,-58.53 206.26,-60.33 215.89,-62.14 222.90,-63.53 229.92,-64.92 238.00,-66.80 246.08,-68.68 255.10,-70.25 264.11,-71.81 271.08,-72.65 278.04,-73.49 285.89,-74.03 293.73,-74.57 303.56,-74.41 313.39,-74.26 320.89,-73.90 328.39,-73.53 335.96,-72.68 343.53,-71.83 352.95,-71.24 362.38,-70.65 371.64,-69.26 380.91,-67.88 392.78,-66.03 404.65,-64.18 419.67,-61.26 434.69,-58.35 447.39,-57.13 460.10,-55.92 474.53,-55.89 488.96,-55.85 504.45,-55.75 519.94,-55.65 532.26,-55.38 544.58,-55.11 554.99,-54.45 565.40,-53.78 572.58,-53.52 579.76,-53.26 581.36,-53.71 582.97,-54.16 583.46,-56.09 583.96,-58.02 585.17,-59.11 586.39,-60.20 586.42,-60.48 586.46,-60.76 586.56,-61.02 586.66,-61.29 586.82,-61.52 586.97,-61.75 587.18,-61.93 587.39,-62.12 587.64,-62.25 587.89,-62.38 588.16,-62.45 588.44,-62.51 588.72,-62.51 589.00,-62.51 589.27,-62.45 589.54,-62.38 589.79,-62.25 590.04,-62.12 590.25,-61.93 590.46,-61.75 590.62,-61.52 590.78,-61.29 590.88,-61.02 590.98,-60.76 591.01,-60.48 591.04,-60.20 591.41,-60.10 591.77,-59.99 591.87,-58.57 591.98,-57.15 591.89,-56.05 591.81,-54.96 591.71,-53.79 591.62,-52.62 591.51,-51.30 591.41,-49.98 591.32,-48.29 591.24,-46.60 591.24,-44.04 591.24,-41.48 591.24,-36.88 591.24,-32.28 591.24,-27.13 591.23,-21.99 591.23,-18.40 591.23,-14.82 591.23,-10.65 591.22,-6.47 591.21,-3.76 591.20,-1.04 591.18,1.09 591.16,3.23 591.11,5.41 591.05,7.59 590.93,9.86 590.80,12.12 590.51,16.04 590.22,19.96 589.52,24.87 588.83,29.79 587.23,36.98 585.62,44.16 583.27,53.91 580.93,63.66 579.64,71.08 578.36,78.49 576.76,87.42 575.16,96.34 572.81,108.86 570.46,121.38 567.81,130.78 565.17,140.18 563.18,149.58 561.19,158.98 559.32,171.31 557.45,183.64 554.51,195.42 551.57,207.21 548.90,220.79 546.23,234.37 544.20,247.94 542.16,261.52 540.22,272.09 538.28,282.67 536.55,293.36 534.82,304.06 533.56,313.70 532.31,323.34 530.81,330.27 529.30,337.20 527.16,347.91 525.01,358.61 521.43,370.83 517.85,383.05 515.06,396.28 512.27,409.52 509.96,420.76 507.66,431.99 506.47,439.94 505.28,447.90 505.29,455.49 505.30,463.08 505.30,471.02 505.30,478.95 505.25,483.47 505.19,487.99 504.71,490.25 504.23,492.52 503.01,492.97 501.80,493.43 500.46,492.56 499.12,491.69 496.05,491.11 492.98,490.53 488.75,489.20 484.51,487.87 478.82,486.16 473.13,484.45 468.33,483.26 463.54,482.07 459.00,482.07 454.46,482.07 449.46,482.07 444.45,482.07 439.78,482.07 435.10,482.07 429.78,482.06 424.46,482.06 416.20,482.05 407.94,482.05 401.30,482.03 394.65,482.02 387.52,481.99 380.40,481.96 372.17,481.88 363.93,481.81 354.49,481.63 345.06,481.45 334.23,481.03 323.40,480.61 307.88,479.62 292.36,478.63 282.88,477.73 273.40,476.83 265.32,476.12 257.24,475.42 248.05,475.19 238.86,474.95 230.14,474.40 221.41,473.85 209.28,473.96 197.15,474.08 180.00,474.35 162.84,474.62 150.79,475.26 138.74,475.91 127.51,475.99 116.28,476.08 106.88,476.28 97.49,476.49 86.73,476.96 75.98,477.44 62.00,478.56 48.01,479.67 36.31,480.89 24.60,482.10 14.26,482.11 3.92,482.11 -4.78,482.11 -13.48,482.11 -18.35,482.10 -23.21,482.08 -27.55,482.04 -31.90,482.00 -36.45,481.87 -41.01,481.74 -44.85,481.29 -48.70,480.85 -49.97,479.58 -51.24,478.31 -51.16,476.03 -51.08,473.74 -50.67,470.48 -50.26,467.22 -49.31,462.52 -48.36,457.83 -47.55,452.45 -46.73,447.07 -46.21,439.93 -45.69,432.79 -44.48,423.15 -43.26,413.50 -41.82,405.05 -40.38,396.59 -38.45,388.18 -36.51,379.78 -34.77,368.44 -33.03,357.10 -31.77,345.98 -30.51,334.85 -28.97,322.92 -27.43,310.99 -26.63,301.27 -25.84,291.54 -23.98,280.16 -22.12,268.79 -20.59,256.18 -19.06,243.58 -18.29,235.20 -17.52,226.83 -17.11,218.39 -16.71,209.94 -15.77,200.09 -14.83,190.23 -14.04,182.70 -13.25,175.18 -12.81,167.31 -12.36,159.44 -11.30,149.51 -10.25,139.59 -9.20,130.46 -8.14,121.34 -7.07,109.78 -6.00,98.22 -4.89,85.18 -3.78,72.14 -2.59,62.93 -1.40,53.71 -1.42,44.61 -1.44,35.50 -1.46,29.69 -1.49,23.89 -1.52,18.75 -1.56,13.61 -1.60,8.61 -1.65,3.62 -1.62,1.81 -1.58,0 -1.56,-0.18 -1.54,-0.37 -1.47,-0.55 -1.40,-0.73 -1.29,-0.89 -1.18,-1.05 -1.04,-1.17 -0.90,-1.30 -0.73,-1.39 -0.56,-1.48 -0.37,-1.53 -0.19,-1.57 0.00,-1.57 0.19,-1.57 0.37,-1.53 0.56,-1.48 0.73,-1.39 0.90,-1.30 1.04,-1.17 1.18,-1.05 1.29,-0.89 1.40,-0.73 1.47,-0.55 1.54,-0.37 1.56,-0.18 1.58,0.00 1.58,0.00 L 1.58,0 Z"></path></g><g transform="translate(329.10731260769603 1128.9749843414602) rotate(0 304.41158110602566 -541.6426753472734)" stroke="none"><path fill="#364fc7" d="M 0.58,-1.45 Q 0.58,-1.45 3.58,-0.21 6.59,1.02 28.35,8.79 50.11,16.56 111.71,21.64 173.31,26.73 211.02,28.91 248.72,31.10 300.92,30.22 353.11,29.34 421.12,21.12 489.13,12.91 540.35,3.39 591.57,-6.12 642.22,-25.22 692.87,-44.33 719.84,-56.07 746.81,-67.81 761.80,-78.17 776.79,-88.54 784.93,-96.51 793.07,-104.49 801.28,-119.23 809.50,-133.98 822.09,-156.01 834.69,-178.03 847.91,-197.69 861.14,-217.35 876.40,-239.58 891.67,-261.80 901.71,-290.40 911.74,-319.01 916.02,-338.40 920.29,-357.79 922.10,-379.86 923.92,-401.92 921.07,-428.72 918.23,-455.52 915.21,-490.51 912.19,-525.50 907.89,-571.75 903.58,-618.00 895.73,-662.35 887.87,-706.70 879.11,-741.82 870.34,-776.95 861.20,-801.48 852.06,-826.02 839.14,-853.93 826.21,-881.84 806.87,-911.75 787.53,-941.66 769.06,-965.22 750.60,-988.78 730.13,-1007.80 709.66,-1026.81 687.12,-1042.71 664.58,-1058.62 642.35,-1071.40 620.11,-1084.19 598.06,-1092.61 576.01,-1101.03 557.61,-1105.81 539.22,-1110.60 518.19,-1112.62 497.17,-1114.64 464.78,-1111.29 432.39,-1107.93 398.69,-1102.28 364.99,-1096.64 314.50,-1083.38 264.00,-1070.13 234.66,-1063.28 205.31,-1056.43 171.81,-1043.29 138.31,-1030.15 96.31,-1010.08 54.31,-990.02 28.63,-976.07 2.94,-962.11 -14.60,-951.96 -32.15,-941.81 -46.26,-933.87 -60.37,-925.92 -74.15,-915.95 -87.93,-905.97 -99.84,-896.90 -111.74,-887.83 -124.00,-876.16 -136.25,-864.50 -148.08,-851.12 -159.91,-837.73 -172.16,-821.21 -184.42,-804.68 -202.29,-777.75 -220.17,-750.82 -235.62,-726.69 -251.07,-702.57 -261.26,-687.47 -271.46,-672.37 -279.37,-656.38 -287.28,-640.39 -293.66,-625.74 -300.04,-611.09 -305.15,-594.07 -310.26,-577.04 -312.41,-559.62 -314.57,-542.20 -315.50,-525.74 -316.42,-509.28 -316.81,-492.63 -317.21,-475.98 -317.37,-461.05 -317.54,-446.13 -317.01,-428.95 -316.48,-411.77 -315.05,-399.68 -313.62,-387.59 -310.00,-366.17 -306.37,-344.74 -303.02,-325.97 -299.67,-307.20 -296.44,-290.78 -293.21,-274.36 -291.23,-264.36 -289.25,-254.36 -285.40,-239.89 -281.55,-225.43 -276.91,-213.29 -272.28,-201.15 -266.69,-188.14 -261.09,-175.13 -257.49,-165.34 -253.89,-155.54 -250.59,-149.05 -247.28,-142.56 -242.88,-135.59 -238.47,-128.63 -233.58,-121.44 -228.69,-114.26 -223.00,-106.38 -217.30,-98.51 -212.49,-92.77 -207.68,-87.04 -205.03,-84.00 -202.38,-80.95 -196.44,-74.85 -190.51,-68.75 -185.57,-63.74 -180.62,-58.72 -177.36,-56.03 -174.10,-53.34 -170.25,-49.73 -166.40,-46.13 -162.39,-42.83 -158.39,-39.52 -150.73,-35.15 -143.06,-30.78 -138.57,-28.30 -134.08,-25.82 -129.19,-23.57 -124.30,-21.33 -119.27,-19.80 -114.24,-18.26 -110.17,-16.35 -106.10,-14.45 -100.83,-12.47 -95.57,-10.48 -89.82,-9.67 -84.08,-8.85 -78.54,-7.88 -73.01,-6.91 -69.49,-6.51 -65.98,-6.10 -62.00,-5.32 -58.02,-4.53 -55.79,-4.21 -53.55,-3.88 -51.43,-3.75 -49.31,-3.61 -46.60,-3.55 -43.90,-3.50 -40.33,-3.47 -36.76,-3.45 -34.64,-3.43 -32.52,-3.42 -30.95,-3.52 -29.38,-3.61 -29.14,-3.57 -28.90,-3.53 -28.68,-3.41 -28.46,-3.30 -28.30,-3.12 -28.13,-2.94 -28.03,-2.71 -27.93,-2.49 -27.90,-2.25 -27.87,-2.00 -27.93,-1.77 -27.98,-1.53 -28.11,-1.32 -28.24,-1.11 -28.42,-0.95 -28.61,-0.79 -28.84,-0.70 -29.07,-0.61 -29.31,-0.60 -29.56,-0.59 -29.79,-0.66 -30.03,-0.72 -30.23,-0.86 -30.43,-1.00 -30.58,-1.20 -30.73,-1.39 -30.81,-1.62 -30.88,-1.86 -30.88,-2.10 -30.88,-2.35 -30.80,-2.58 -30.72,-2.81 -30.57,-3.01 -30.42,-3.20 -30.22,-3.34 -30.02,-3.47 -29.78,-3.54 -29.54,-3.60 -29.30,-3.59 -29.05,-3.57 -28.83,-3.48 -28.60,-3.39 -28.41,-3.23 -28.23,-3.07 -28.10,-2.86 -27.98,-2.65 -27.93,-2.41 -27.87,-2.17 -27.90,-1.92 -27.93,-1.68 -28.03,-1.46 -28.14,-1.24 -28.31,-1.06 -28.48,-0.88 -28.69,-0.77 -28.91,-0.66 -29.15,-0.62 -29.39,-0.58 -29.39,-0.58 -29.39,-0.58 -30.96,-0.69 -32.53,-0.80 -34.66,-0.81 -36.78,-0.82 -40.37,-0.84 -43.95,-0.87 -46.72,-0.93 -49.48,-0.99 -51.70,-1.14 -53.93,-1.28 -56.23,-1.62 -58.54,-1.96 -62.41,-2.73 -66.28,-3.50 -69.87,-3.91 -73.46,-4.33 -78.96,-5.29 -84.45,-6.25 -90.47,-7.14 -96.48,-8.02 -101.85,-10.05 -107.21,-12.07 -111.11,-13.91 -115.01,-15.75 -120.20,-17.35 -125.40,-18.94 -130.37,-21.23 -135.35,-23.52 -139.86,-26.01 -144.37,-28.50 -152.21,-33.00 -160.05,-37.49 -164.12,-40.85 -168.19,-44.21 -171.98,-47.76 -175.78,-51.31 -179.13,-54.10 -182.49,-56.88 -187.44,-61.90 -192.39,-66.92 -198.38,-73.07 -204.36,-79.23 -207.03,-82.29 -209.70,-85.36 -214.56,-91.16 -219.43,-96.97 -225.15,-104.87 -230.86,-112.78 -235.78,-120.00 -240.69,-127.23 -245.16,-134.30 -249.63,-141.36 -252.99,-148.00 -256.36,-154.63 -259.93,-164.37 -263.51,-174.10 -269.12,-187.15 -274.73,-200.21 -279.41,-212.48 -284.09,-224.75 -287.96,-239.30 -291.82,-253.85 -293.80,-263.86 -295.78,-273.86 -299.02,-290.30 -302.26,-306.74 -305.61,-325.52 -308.96,-344.30 -312.60,-365.79 -316.23,-387.28 -317.66,-399.48 -319.10,-411.68 -319.64,-428.92 -320.17,-446.16 -320.00,-461.10 -319.83,-476.04 -319.44,-492.73 -319.04,-509.42 -318.11,-525.97 -317.18,-542.52 -314.98,-560.15 -312.77,-577.79 -307.61,-594.97 -302.45,-612.14 -296.04,-626.85 -289.63,-641.55 -281.63,-657.70 -273.64,-673.84 -263.46,-688.91 -253.28,-703.98 -237.82,-728.13 -222.36,-752.27 -204.44,-779.26 -186.53,-806.25 -174.20,-822.86 -161.88,-839.47 -149.97,-852.94 -138.06,-866.41 -125.70,-878.16 -113.34,-889.91 -101.40,-899.01 -89.47,-908.10 -75.57,-918.16 -61.66,-928.21 -47.57,-936.15 -33.47,-944.08 -15.88,-954.25 1.69,-964.42 27.43,-978.41 53.18,-992.39 95.26,-1012.49 137.35,-1032.59 171.03,-1045.79 204.71,-1058.99 234.02,-1065.83 263.34,-1072.67 313.95,-1085.95 364.56,-1099.23 398.34,-1104.89 432.12,-1110.54 464.77,-1113.90 497.41,-1117.26 518.64,-1115.20 539.87,-1113.14 558.41,-1108.31 576.94,-1103.48 599.18,-1094.97 621.42,-1086.47 643.76,-1073.61 666.09,-1060.76 688.77,-1044.75 711.45,-1028.73 732.06,-1009.57 752.66,-990.41 771.20,-966.75 789.73,-943.09 809.16,-913.02 828.59,-882.95 841.56,-854.94 854.52,-826.93 863.71,-802.26 872.89,-777.59 881.67,-742.37 890.46,-707.16 898.33,-662.70 906.20,-618.24 910.50,-571.99 914.80,-525.73 917.82,-490.76 920.84,-455.80 923.69,-428.75 926.54,-401.71 924.70,-379.47 922.86,-357.23 918.54,-337.68 914.22,-318.14 904.04,-289.24 893.85,-260.33 878.59,-238.11 863.32,-215.89 850.15,-196.31 836.98,-176.73 824.39,-154.71 811.80,-132.69 803.37,-117.66 794.93,-102.62 786.61,-94.49 778.30,-86.36 763.09,-75.87 747.88,-65.38 720.84,-53.61 693.81,-41.83 642.94,-22.66 592.07,-3.48 540.76,6.05 489.45,15.59 421.30,23.83 353.16,32.06 300.86,32.96 248.56,33.86 210.82,31.70 173.08,29.54 111.12,24.41 49.17,19.29 27.32,11.54 5.48,3.80 2.45,2.62 -0.58,1.45 -0.74,1.35 -0.91,1.26 -1.04,1.14 -1.18,1.01 -1.29,0.85 -1.39,0.70 -1.45,0.52 -1.52,0.34 -1.54,0.15 -1.56,-0.02 -1.53,-0.21 -1.50,-0.40 -1.43,-0.57 -1.36,-0.75 -1.26,-0.90 -1.15,-1.05 -1.00,-1.17 -0.86,-1.30 -0.69,-1.38 -0.52,-1.47 -0.34,-1.51 -0.16,-1.55 0.02,-1.55 0.21,-1.54 0.39,-1.49 0.58,-1.45 0.58,-1.45 L 0.58,-1.45 Z"></path></g><g transform="translate(299.68478185257356 1125.568474422365) rotate(0 13.527367815451015 1.0344457741227302)" stroke="none"><path fill="#364fc7" d="M 0.25,-2.47 Q 0.25,-2.47 1.58,-2.35 2.91,-2.22 4.94,-1.85 6.97,-1.47 8.37,-1.39 9.78,-1.31 11.43,-1.36 13.08,-1.41 14.39,-1.46 15.70,-1.50 16.78,-1.55 17.85,-1.60 19.04,-1.59 20.22,-1.58 21.34,-1.58 22.47,-1.59 24.82,-1.38 27.18,-1.17 27.69,-1.06 28.21,-0.96 28.66,-0.69 29.12,-0.43 29.46,-0.03 29.81,0.35 30.01,0.84 30.21,1.32 30.25,1.84 30.28,2.37 30.15,2.88 30.01,3.38 29.73,3.82 29.44,4.26 29.02,4.59 28.61,4.91 28.12,5.08 27.62,5.26 27.10,5.27 26.57,5.27 26.07,5.11 25.57,4.95 25.15,4.64 24.73,4.33 24.42,3.90 24.12,3.47 23.98,2.96 23.83,2.46 23.85,1.94 23.87,1.41 24.06,0.92 24.25,0.43 24.58,0.03 24.91,-0.37 25.36,-0.65 25.81,-0.92 26.32,-1.04 26.83,-1.16 27.35,-1.11 27.87,-1.07 28.35,-0.85 28.83,-0.64 29.22,-0.28 29.61,0.06 29.86,0.52 30.11,0.98 30.20,1.50 30.30,2.02 30.22,2.54 30.14,3.06 29.90,3.52 29.66,3.99 29.29,4.36 28.91,4.72 28.44,4.95 27.96,5.18 27.44,5.24 26.92,5.31 26.92,5.31 26.92,5.31 25.19,5.10 23.47,4.90 22.18,4.71 20.89,4.52 19.75,4.35 18.62,4.18 17.52,4.11 16.42,4.03 15.16,3.86 13.90,3.69 12.74,3.56 11.58,3.44 10.52,3.34 9.46,3.24 7.95,3.11 6.44,2.99 4.41,2.88 2.39,2.77 1.06,2.62 -0.25,2.47 -0.54,2.41 -0.84,2.34 -1.11,2.20 -1.37,2.07 -1.60,1.87 -1.83,1.68 -2.00,1.44 -2.18,1.19 -2.29,0.91 -2.40,0.63 -2.44,0.34 -2.49,0.04 -2.45,-0.25 -2.42,-0.55 -2.32,-0.83 -2.22,-1.11 -2.05,-1.36 -1.89,-1.61 -1.67,-1.82 -1.45,-2.02 -1.18,-2.16 -0.92,-2.31 -0.63,-2.39 -0.34,-2.46 -0.04,-2.47 0.25,-2.47 0.25,-2.47 L 0.25,-2.47 Z"></path></g><g transform="translate(1682.819326012038 1420.5293446496548) rotate(0 195 -181.66666666666663)" stroke="none"><path fill="#862e9c" d="M -1.29,-0.86 Q -1.29,-0.86 0.64,-3.72 2.59,-6.57 4.42,-8.80 6.25,-11.02 11.82,-17.69 17.38,-24.36 28.34,-39.61 39.30,-54.86 53.54,-77.61 67.77,-100.36 87.24,-133.03 106.72,-165.70 122.66,-193.00 138.60,-220.30 152.10,-242.46 165.59,-264.61 176.09,-285.48 186.59,-306.34 192.99,-318.12 199.39,-329.90 204.02,-338.72 208.64,-347.54 210.56,-354.99 212.48,-362.44 214.29,-367.64 216.10,-372.83 216.84,-376.83 217.57,-380.84 217.89,-383.50 218.21,-386.16 218.34,-389.18 218.48,-392.20 219.53,-395.58 220.57,-398.96 221.34,-401.56 222.11,-404.16 221.90,-403.85 221.68,-403.54 221.73,-403.70 221.78,-403.86 221.87,-404.00 221.96,-404.15 222.08,-404.27 222.20,-404.39 222.34,-404.47 222.49,-404.56 222.65,-404.61 222.81,-404.66 222.98,-404.67 223.14,-404.68 223.31,-404.65 223.48,-404.62 223.63,-404.55 223.78,-404.48 223.92,-404.37 224.05,-404.27 224.15,-404.14 224.25,-404.00 224.32,-403.85 224.39,-403.70 224.42,-403.53 224.45,-403.36 224.44,-403.20 224.43,-403.03 225.53,-399.15 226.63,-395.27 228.02,-380.31 229.40,-365.35 229.97,-353.28 230.54,-341.20 230.77,-331.28 231.01,-321.35 233.97,-307.68 236.92,-294.01 241.04,-280.53 245.16,-267.06 251.67,-253.74 258.18,-240.42 269.56,-221.35 280.94,-202.27 293.43,-184.61 305.91,-166.94 316.06,-148.81 326.20,-130.68 333.40,-115.29 340.59,-99.91 345.55,-89.56 350.51,-79.21 355.45,-72.02 360.38,-64.83 363.51,-57.80 366.65,-50.77 370.76,-45.07 374.88,-39.36 378.61,-33.01 382.33,-26.65 384.87,-22.04 387.41,-17.42 389.45,-13.54 391.49,-9.66 394.29,-3.18 397.09,3.29 400.13,7.84 403.18,12.39 405.50,17.33 407.82,22.27 408.84,27.36 409.85,32.44 410.25,35.63 410.65,38.82 409.82,40.57 408.99,42.31 407.44,43.20 405.88,44.10 402.19,44.34 398.50,44.58 393.17,44.65 387.84,44.71 382.71,44.72 377.58,44.73 367.66,43.77 357.74,42.80 342.11,42.39 326.48,41.98 309.32,42.76 292.16,43.53 270.42,42.90 248.68,42.27 230.81,41.04 212.94,39.81 198.59,37.36 184.23,34.91 169.55,32.92 154.88,30.93 144.83,30.08 134.79,29.23 125.67,27.91 116.55,26.59 104.99,24.10 93.42,21.61 83.73,19.60 74.05,17.59 64.14,14.81 54.23,12.03 44.32,9.90 34.42,7.77 28.32,6.87 22.22,5.97 17.73,5.59 13.24,5.21 9.43,5.05 5.62,4.88 2.09,4.81 -1.43,4.74 -4.67,5.65 -7.92,6.56 -11.34,6.95 -14.76,7.34 -16.23,8.55 -17.71,9.76 -17.88,9.76 -18.06,9.76 -18.22,9.72 -18.39,9.68 -18.55,9.59 -18.70,9.51 -18.83,9.40 -18.96,9.28 -19.06,9.14 -19.15,8.99 -19.22,8.83 -19.28,8.67 -19.30,8.50 -19.32,8.32 -19.30,8.15 -19.27,7.98 -19.21,7.82 -19.15,7.66 -19.05,7.51 -18.95,7.37 -18.82,7.26 -18.69,7.14 -18.54,7.06 -18.38,6.98 -18.21,6.94 -18.04,6.90 -9.30,2.85 -0.55,-1.19 -0.35,-1.24 -0.14,-1.30 0.06,-1.29 0.27,-1.28 0.47,-1.20 0.67,-1.12 0.83,-0.99 0.99,-0.85 1.10,-0.67 1.21,-0.48 1.26,-0.28 1.31,-0.07 1.28,0.13 1.26,0.34 1.17,0.54 1.08,0.73 0.94,0.88 0.79,1.04 0.61,1.14 0.42,1.24 0.21,1.27 0.00,1.31 -0.20,1.27 -0.41,1.24 -0.60,1.14 -0.79,1.04 -0.93,0.89 -1.08,0.74 -1.17,0.54 -1.26,0.35 -1.28,0.14 -1.31,-0.06 -1.26,-0.27 -1.22,-0.48 -1.11,-0.66 -1.00,-0.84 -0.84,-0.98 -0.68,-1.12 -0.48,-1.20 -0.28,-1.28 -0.07,-1.29 0.13,-1.30 0.34,-1.24 0.54,-1.19 0.72,-1.07 0.90,-0.95 1.02,-0.78 1.15,-0.61 1.22,-0.41 1.29,-0.21 1.29,-0.00 1.29,0.20 1.22,0.41 1.16,0.61 1.03,0.78 0.90,0.95 0.73,1.07 0.55,1.19 0.55,1.19 0.55,1.19 -8.57,5.47 -17.71,9.76 -17.88,9.76 -18.06,9.76 -18.22,9.72 -18.39,9.68 -18.55,9.59 -18.70,9.51 -18.83,9.40 -18.96,9.28 -19.06,9.14 -19.15,8.99 -19.22,8.83 -19.28,8.67 -19.30,8.50 -19.32,8.32 -19.30,8.15 -19.27,7.98 -19.21,7.82 -19.15,7.66 -19.05,7.51 -18.95,7.37 -18.82,7.26 -18.69,7.14 -18.54,7.06 -18.38,6.98 -18.21,6.94 -18.04,6.90 -16.65,5.86 -15.26,4.81 -11.93,4.42 -8.61,4.02 -5.01,3.07 -1.40,2.12 2.16,2.19 5.73,2.26 9.60,2.42 13.47,2.59 18.03,2.98 22.60,3.37 28.79,4.28 34.97,5.20 44.95,7.35 54.94,9.49 64.76,12.25 74.59,15.01 84.28,17.02 93.97,19.03 105.45,21.50 116.93,23.97 125.97,25.28 135.01,26.59 145.12,27.44 155.24,28.29 169.96,30.29 184.68,32.28 198.90,34.70 213.13,37.13 230.95,38.34 248.76,39.56 270.40,40.18 292.04,40.79 309.29,39.99 326.55,39.19 342.28,39.58 358.02,39.97 367.79,40.88 377.56,41.80 382.67,41.73 387.78,41.65 393.03,41.52 398.28,41.38 402.46,40.94 406.65,40.50 407.39,39.65 408.12,38.80 407.70,35.87 407.28,32.95 406.36,28.16 405.44,23.37 403.21,18.61 400.99,13.84 397.83,9.09 394.68,4.34 391.92,-2.05 389.16,-8.44 387.13,-12.30 385.11,-16.16 382.59,-20.74 380.07,-25.32 376.40,-31.57 372.74,-37.83 368.49,-43.76 364.25,-49.69 361.23,-56.52 358.20,-63.34 353.17,-70.70 348.13,-78.06 343.17,-88.43 338.20,-98.79 331.04,-114.09 323.89,-129.39 313.82,-147.40 303.74,-165.41 291.20,-183.16 278.65,-200.91 267.21,-220.07 255.77,-239.24 249.18,-252.75 242.58,-266.26 238.42,-279.85 234.25,-293.43 231.25,-307.35 228.24,-321.27 227.98,-331.17 227.72,-341.06 227.12,-353.07 226.51,-365.09 225.14,-379.75 223.76,-394.41 222.70,-397.83 221.65,-401.26 221.67,-402.40 221.68,-403.54 221.73,-403.70 221.78,-403.86 221.87,-404.00 221.96,-404.15 222.08,-404.27 222.20,-404.39 222.34,-404.47 222.49,-404.56 222.65,-404.61 222.81,-404.66 222.98,-404.67 223.14,-404.68 223.31,-404.65 223.48,-404.62 223.63,-404.55 223.78,-404.48 223.92,-404.37 224.05,-404.27 224.15,-404.14 224.25,-404.00 224.32,-403.85 224.39,-403.70 224.42,-403.53 224.45,-403.36 224.44,-403.20 224.43,-403.03 223.85,-402.66 223.27,-402.29 223.18,-400.23 223.08,-398.17 222.09,-395.12 221.10,-392.06 220.96,-388.95 220.82,-385.84 220.49,-383.10 220.16,-380.36 219.37,-376.16 218.59,-371.96 216.81,-366.87 215.03,-361.78 213.01,-354.06 210.99,-346.33 206.35,-337.49 201.71,-328.64 195.34,-316.90 188.96,-305.15 178.41,-284.19 167.87,-263.23 154.39,-241.09 140.92,-218.95 124.98,-191.63 109.03,-164.32 89.56,-131.62 70.09,-98.91 55.82,-76.08 41.55,-53.24 30.55,-37.90 19.55,-22.56 14.02,-15.88 8.50,-9.19 6.78,-7.05 5.07,-4.92 3.18,-2.02 1.29,0.86 1.17,1.00 1.05,1.15 0.90,1.26 0.74,1.37 0.57,1.44 0.39,1.51 0.21,1.53 0.02,1.56 -0.16,1.54 -0.34,1.52 -0.52,1.45 -0.70,1.39 -0.86,1.29 -1.01,1.18 -1.14,1.04 -1.27,0.90 -1.36,0.74 -1.45,0.57 -1.49,0.39 -1.54,0.21 -1.55,0.02 -1.55,-0.16 -1.51,-0.34 -1.46,-0.53 -1.38,-0.69 -1.29,-0.86 -1.29,-0.86 L -1.29,-0.86 Z"></path></g><g transform="translate(1789.4859926787044 1263.8626779829883) rotate(0 -311.6666666666665 -156.66666666666674)" stroke="none"><path fill="#862e9c" d="M -0.80,1.33 Q -0.80,1.33 -5.57,-1.56 -10.35,-4.46 -27.63,-12.38 -44.92,-20.29 -68.63,-33.28 -92.34,-46.28 -129.24,-67.13 -166.14,-87.99 -206.77,-115.09 -247.41,-142.18 -278.04,-160.38 -308.68,-178.58 -331.28,-191.11 -353.88,-203.63 -377.82,-214.69 -401.76,-225.75 -420.57,-234.29 -439.39,-242.83 -453.18,-250.31 -466.97,-257.80 -479.49,-263.83 -492.01,-269.87 -500.13,-272.40 -508.25,-274.94 -513.59,-276.01 -518.93,-277.09 -522.15,-277.55 -525.37,-278.01 -527.67,-278.20 -529.98,-278.39 -531.90,-278.44 -533.83,-278.48 -535.61,-278.46 -537.38,-278.43 -539.09,-278.39 -540.80,-278.35 -543.44,-278.40 -546.09,-278.44 -549.13,-278.48 -552.17,-278.51 -556.35,-278.54 -560.53,-278.56 -563.47,-279.58 -566.42,-280.59 -569.36,-280.97 -572.29,-281.36 -576.42,-281.54 -580.54,-281.72 -584.42,-282.79 -588.29,-283.87 -591.04,-286.36 -593.79,-288.84 -596.56,-289.71 -599.33,-290.59 -601.47,-290.99 -603.61,-291.40 -605.46,-291.52 -607.31,-291.65 -609.26,-291.78 -611.20,-291.90 -612.42,-293.05 -613.64,-294.20 -614.16,-295.84 -614.68,-297.48 -615.57,-298.69 -616.46,-299.89 -617.68,-300.35 -618.91,-300.80 -619.92,-302.36 -620.94,-303.92 -622.00,-305.26 -623.07,-306.60 -623.59,-308.16 -624.10,-309.72 -624.23,-309.92 -624.36,-310.12 -624.44,-310.35 -624.51,-310.58 -624.53,-310.82 -624.55,-311.06 -624.52,-311.29 -624.48,-311.53 -624.38,-311.75 -624.29,-311.97 -624.15,-312.16 -624.00,-312.36 -623.82,-312.51 -623.63,-312.66 -623.41,-312.76 -623.20,-312.87 -622.96,-312.91 -622.73,-312.96 -622.49,-312.95 -622.25,-312.94 -622.02,-312.88 -621.79,-312.81 -621.58,-312.69 -621.37,-312.57 -621.20,-312.41 -621.03,-312.24 -621.16,-310.78 -621.30,-309.32 -621.21,-307.90 -621.12,-306.47 -621.21,-306.12 -621.30,-305.78 -621.49,-305.47 -621.69,-305.17 -621.97,-304.95 -622.25,-304.73 -622.58,-304.60 -622.92,-304.48 -623.28,-304.47 -623.64,-304.47 -623.98,-304.57 -624.32,-304.68 -624.61,-304.89 -624.90,-305.10 -625.11,-305.39 -625.32,-305.69 -625.42,-306.03 -625.53,-306.37 -625.52,-306.73 -625.50,-307.09 -625.38,-307.43 -625.25,-307.76 -625.03,-308.04 -624.80,-308.32 -624.50,-308.51 -624.19,-308.70 -623.85,-308.79 -623.50,-308.87 -623.14,-308.84 -622.78,-308.81 -622.45,-308.67 -622.12,-308.52 -621.86,-308.28 -621.59,-308.04 -621.42,-307.73 -621.24,-307.42 -621.18,-307.06 -621.11,-306.71 -621.16,-306.35 -621.21,-306.00 -621.37,-305.68 -621.53,-305.36 -621.79,-305.11 -622.04,-304.85 -622.37,-304.70 -622.69,-304.54 -623.04,-304.49 -623.40,-304.45 -623.75,-304.51 -624.10,-304.58 -624.42,-304.76 -624.73,-304.94 -624.96,-305.21 -625.20,-305.48 -625.34,-305.81 -625.48,-306.14 -625.51,-306.50 -625.54,-306.85 -625.54,-306.85 -625.54,-306.85 -624.82,-308.29 -624.10,-309.72 -624.23,-309.92 -624.36,-310.12 -624.44,-310.35 -624.51,-310.58 -624.53,-310.82 -624.55,-311.06 -624.52,-311.29 -624.48,-311.53 -624.38,-311.75 -624.29,-311.97 -624.15,-312.16 -624.00,-312.36 -623.82,-312.51 -623.63,-312.66 -623.41,-312.76 -623.20,-312.87 -622.96,-312.91 -622.73,-312.96 -622.49,-312.95 -622.25,-312.94 -622.02,-312.88 -621.79,-312.81 -621.58,-312.69 -621.37,-312.57 -621.20,-312.41 -621.03,-312.24 -620.51,-310.62 -619.99,-309.00 -618.43,-306.46 -616.87,-303.91 -615.25,-303.05 -613.63,-302.20 -612.33,-300.31 -611.04,-298.43 -610.63,-296.48 -610.23,-294.53 -608.64,-294.50 -607.04,-294.47 -605.08,-294.24 -603.12,-294.00 -600.80,-293.56 -598.49,-293.11 -595.27,-291.98 -592.06,-290.85 -589.75,-288.62 -587.44,-286.40 -583.93,-285.41 -580.41,-284.43 -576.17,-284.26 -571.93,-284.09 -568.72,-283.66 -565.50,-283.23 -562.99,-282.33 -560.47,-281.42 -556.32,-281.45 -552.16,-281.47 -549.12,-281.50 -546.08,-281.53 -543.43,-281.56 -540.77,-281.60 -539.05,-281.53 -537.32,-281.45 -535.52,-281.36 -533.71,-281.26 -531.73,-281.14 -529.76,-281.01 -527.38,-280.81 -525.00,-280.61 -521.70,-280.14 -518.41,-279.67 -512.94,-278.56 -507.47,-277.45 -499.17,-274.85 -490.87,-272.25 -478.29,-266.19 -465.71,-260.13 -452.00,-252.69 -438.29,-245.25 -419.47,-236.71 -400.64,-228.17 -376.61,-217.07 -352.58,-205.98 -329.94,-193.44 -307.30,-180.90 -276.60,-162.68 -245.89,-144.45 -205.33,-117.42 -164.77,-90.39 -127.88,-69.57 -90.99,-48.75 -67.35,-35.83 -43.72,-22.92 -26.26,-14.97 -8.81,-7.03 -4.00,-4.18 0.80,-1.33 0.95,-1.22 1.10,-1.10 1.21,-0.96 1.33,-0.81 1.41,-0.64 1.48,-0.46 1.52,-0.28 1.55,-0.09 1.54,0.08 1.53,0.27 1.48,0.45 1.42,0.63 1.32,0.79 1.23,0.95 1.10,1.09 0.96,1.22 0.80,1.32 0.64,1.42 0.46,1.47 0.28,1.53 0.09,1.54 -0.08,1.55 -0.27,1.52 -0.45,1.49 -0.63,1.41 -0.80,1.33 -0.80,1.33 L -0.80,1.33 Z"></path></g><g transform="translate(1172.819326012038 1010.5293446496548) rotate(0 16.666666666666742 -30)" stroke="none"><path fill="#5f3dc4" d="M -1.58,0 Q -1.58,0 -1.59,-1.91 -1.60,-3.83 -1.56,-6.56 -1.52,-9.29 -1.49,-11.41 -1.47,-13.53 -1.44,-16.35 -1.42,-19.16 -1.41,-22.28 -1.39,-25.39 -1.38,-28.63 -1.37,-31.87 -1.36,-36.12 -1.35,-40.38 -1.35,-43.14 -1.34,-45.91 -1.27,-48.19 -1.20,-50.48 -0.14,-51.83 0.90,-53.18 2.54,-53.81 4.17,-54.45 6.84,-54.58 9.51,-54.71 12.30,-55.66 15.09,-56.60 18.23,-57.95 21.37,-59.29 24.81,-59.91 28.24,-60.53 30.66,-60.95 33.08,-61.38 33.30,-61.38 33.53,-61.38 33.75,-61.31 33.96,-61.25 34.15,-61.11 34.33,-60.98 34.46,-60.79 34.59,-60.61 34.66,-60.39 34.72,-60.17 34.71,-59.94 34.70,-59.72 34.62,-59.50 34.54,-59.29 34.40,-59.12 34.25,-58.94 34.06,-58.82 33.87,-58.70 33.65,-58.65 33.43,-58.60 33.20,-58.62 32.98,-58.64 32.77,-58.73 32.56,-58.82 32.39,-58.97 32.23,-59.13 32.12,-59.33 32.01,-59.52 31.97,-59.75 31.93,-59.97 31.96,-60.20 31.99,-60.42 32.09,-60.62 32.20,-60.83 32.36,-60.98 32.52,-61.14 32.73,-61.24 32.93,-61.34 33.16,-61.37 33.38,-61.40 33.60,-61.35 33.83,-61.31 34.02,-61.19 34.22,-61.08 34.37,-60.91 34.52,-60.74 34.61,-60.53 34.69,-60.32 34.71,-60.09 34.73,-59.87 34.67,-59.65 34.61,-59.43 34.49,-59.24 34.36,-59.05 34.18,-58.91 34.01,-58.77 33.79,-58.69 33.58,-58.61 33.58,-58.61 33.58,-58.61 31.17,-58.16 28.75,-57.70 25.65,-57.14 22.54,-56.57 19.32,-55.13 16.10,-53.68 12.93,-52.57 9.76,-51.46 7.44,-51.26 5.11,-51.07 3.16,-50.47 1.20,-49.87 1.27,-47.89 1.34,-45.91 1.35,-43.14 1.35,-40.38 1.36,-36.12 1.37,-31.87 1.38,-28.63 1.39,-25.39 1.41,-22.28 1.42,-19.16 1.44,-16.35 1.47,-13.53 1.49,-11.41 1.52,-9.29 1.56,-6.56 1.60,-3.83 1.59,-1.91 1.58,0 1.55,0.18 1.53,0.37 1.46,0.55 1.39,0.73 1.29,0.89 1.18,1.04 1.04,1.17 0.89,1.30 0.72,1.38 0.56,1.47 0.37,1.52 0.19,1.56 -0.00,1.56 -0.19,1.56 -0.37,1.52 -0.56,1.47 -0.72,1.38 -0.89,1.30 -1.04,1.17 -1.18,1.04 -1.29,0.89 -1.39,0.73 -1.46,0.55 -1.53,0.37 -1.55,0.18 -1.58,-0.00 -1.58,-0.00 L -1.58,0 Z"></path></g><g transform="translate(1159.4859926787044 947.1960113163216) rotate(0 -144.99999999999977 -96.66666666666674)" stroke="none"><path fill="#364fc7" d="M 0,1.56 Q 0,1.56 -2.89,1.52 -5.78,1.48 -11.07,-0.49 -16.37,-2.48 -21.37,-4.26 -26.37,-6.05 -31.37,-7.77 -36.37,-9.49 -41.47,-12.19 -46.57,-14.88 -52.43,-16.93 -58.30,-18.98 -62.88,-21.85 -67.46,-24.72 -73.22,-28.81 -78.97,-32.90 -84.27,-36.54 -89.56,-40.18 -95.53,-42.62 -101.50,-45.07 -108.01,-49.06 -114.53,-53.05 -120.20,-57.64 -125.87,-62.24 -131.03,-65.07 -136.20,-67.90 -141.40,-72.07 -146.60,-76.24 -150.71,-79.92 -154.83,-83.60 -158.42,-86.07 -162.01,-88.53 -165.53,-91.56 -169.06,-94.59 -172.47,-97.79 -175.88,-101.00 -179.25,-104.27 -182.61,-107.55 -185.96,-110.86 -189.31,-114.17 -192.65,-117.50 -195.99,-120.82 -200.22,-124.09 -204.45,-127.37 -207.26,-129.76 -210.07,-132.15 -212.23,-134.14 -214.39,-136.12 -217.23,-138.89 -220.07,-141.65 -222.31,-144.83 -224.55,-148.01 -226.39,-150.24 -228.23,-152.47 -229.97,-154.37 -231.70,-156.27 -234.34,-158.98 -236.99,-161.69 -238.93,-162.75 -240.88,-163.80 -242.80,-165.30 -244.72,-166.81 -246.39,-167.34 -248.06,-167.87 -249.18,-169.27 -250.30,-170.67 -251.46,-172.02 -252.62,-173.37 -253.88,-173.75 -255.13,-174.13 -256.93,-175.52 -258.72,-176.92 -259.58,-178.56 -260.44,-180.21 -262.63,-180.58 -264.82,-180.95 -266.30,-181.03 -267.79,-181.11 -269.44,-181.16 -271.10,-181.22 -273.22,-182.43 -275.34,-183.64 -276.29,-185.24 -277.24,-186.84 -279.40,-187.17 -281.56,-187.51 -283.49,-188.77 -285.42,-190.03 -288.00,-190.63 -290.57,-191.23 -290.89,-191.38 -291.21,-191.53 -291.47,-191.77 -291.73,-192.01 -291.89,-192.32 -292.06,-192.63 -292.11,-192.98 -292.17,-193.33 -292.11,-193.67 -292.06,-194.02 -291.89,-194.33 -291.73,-194.64 -291.47,-194.89 -291.22,-195.13 -290.90,-195.28 -290.58,-195.42 -290.23,-195.46 -289.88,-195.50 -289.54,-195.43 -289.19,-195.35 -288.89,-195.17 -288.59,-194.99 -288.36,-194.72 -288.13,-194.45 -288.00,-194.13 -287.87,-193.80 -287.85,-193.45 -287.83,-193.10 -287.93,-192.76 -288.02,-192.42 -288.22,-192.12 -288.41,-191.83 -288.69,-191.62 -288.97,-191.41 -289.31,-191.29 -289.64,-191.18 -289.99,-191.18 -290.35,-191.18 -290.68,-191.29 -291.01,-191.40 -291.29,-191.62 -291.57,-191.83 -291.77,-192.12 -291.97,-192.41 -292.06,-192.75 -292.16,-193.09 -292.14,-193.44 -292.12,-193.79 -291.99,-194.12 -291.86,-194.45 -291.63,-194.72 -291.41,-194.99 -291.10,-195.17 -290.80,-195.35 -290.46,-195.43 -290.11,-195.50 -289.76,-195.46 -289.41,-195.43 -289.41,-195.43 -289.42,-195.43 -286.30,-194.45 -283.19,-193.48 -281.94,-192.62 -280.69,-191.75 -278.97,-191.41 -277.26,-191.08 -275.63,-190.08 -274.01,-189.09 -273.55,-187.94 -273.09,-186.79 -271.91,-186.05 -270.73,-185.30 -269.11,-185.26 -267.50,-185.21 -265.80,-185.07 -264.11,-184.92 -262.37,-184.52 -260.64,-184.13 -259.09,-183.10 -257.54,-182.08 -257.05,-180.76 -256.55,-179.45 -255.15,-178.39 -253.76,-177.34 -252.02,-176.46 -250.27,-175.59 -248.89,-173.98 -247.50,-172.38 -247.14,-171.34 -246.77,-170.29 -244.96,-169.59 -243.14,-168.89 -241.37,-167.49 -239.60,-166.09 -237.36,-164.82 -235.13,-163.55 -232.45,-160.79 -229.76,-158.04 -227.99,-156.09 -226.21,-154.14 -224.30,-151.83 -222.39,-149.52 -220.31,-146.52 -218.23,-143.53 -215.42,-140.79 -212.61,-138.05 -210.48,-136.10 -208.36,-134.15 -205.60,-131.80 -202.84,-129.45 -198.49,-126.06 -194.14,-122.68 -190.80,-119.36 -187.46,-116.04 -184.12,-112.74 -180.78,-109.43 -177.43,-106.17 -174.08,-102.91 -170.71,-99.74 -167.34,-96.58 -163.93,-93.64 -160.51,-90.69 -156.79,-88.13 -153.08,-85.56 -149.01,-81.93 -144.95,-78.29 -139.94,-74.25 -134.92,-70.21 -129.57,-67.25 -124.22,-64.30 -118.68,-59.79 -113.14,-55.29 -106.82,-51.40 -100.49,-47.51 -94.28,-44.94 -88.07,-42.37 -82.75,-38.72 -77.43,-35.07 -71.73,-31.03 -66.04,-26.99 -61.72,-24.25 -57.40,-21.52 -51.35,-19.41 -45.30,-17.29 -40.38,-14.70 -35.47,-12.11 -30.45,-10.40 -25.43,-8.70 -20.39,-6.94 -15.34,-5.18 -10.53,-3.33 -5.71,-1.48 -2.85,-1.52 0,-1.56 0.18,-1.53 0.37,-1.51 0.54,-1.45 0.72,-1.38 0.88,-1.27 1.03,-1.16 1.16,-1.02 1.28,-0.88 1.37,-0.72 1.46,-0.55 1.50,-0.37 1.55,-0.18 1.55,0.00 1.55,0.18 1.50,0.37 1.46,0.55 1.37,0.72 1.28,0.88 1.16,1.02 1.03,1.16 0.88,1.27 0.72,1.38 0.54,1.45 0.37,1.51 0.18,1.53 -0.00,1.56 -0.00,1.56 L 0,1.56 Z"></path></g><g transform="translate(879.4859926787049 793.8626779829881) rotate(0 21.666666666666515 -23.333333333333258)" stroke="none"><path fill="#364fc7" d="M -1.65,0 Q -1.65,0 -1.61,-2.87 -1.56,-5.75 -1.52,-9.83 -1.49,-13.91 -2.38,-16.38 -3.28,-18.86 -3.69,-21.07 -4.11,-23.28 -4.28,-26.18 -4.45,-29.09 -4.52,-31.26 -4.58,-33.43 -4.60,-36.26 -4.62,-39.08 -5.50,-40.96 -6.38,-42.83 -7.86,-43.76 -9.35,-44.68 -9.40,-44.86 -9.46,-45.03 -9.47,-45.21 -9.48,-45.40 -9.45,-45.58 -9.41,-45.75 -9.34,-45.92 -9.26,-46.09 -9.15,-46.23 -9.04,-46.37 -8.89,-46.49 -8.75,-46.60 -8.58,-46.67 -8.42,-46.75 -8.24,-46.78 -8.06,-46.82 -7.88,-46.80 -7.69,-46.79 -7.52,-46.74 -7.35,-46.68 -7.19,-46.59 -7.03,-46.49 -6.90,-46.37 -6.78,-46.24 -6.68,-46.08 -6.59,-45.92 -5.88,-47.04 -5.18,-48.15 -1.52,-47.19 2.13,-46.22 5.34,-45.82 8.56,-45.42 11.85,-45.24 15.13,-45.05 19.40,-44.96 23.67,-44.87 26.45,-44.82 29.23,-44.77 32.32,-44.75 35.42,-44.73 38.58,-44.69 41.74,-44.65 42.78,-45.59 43.82,-46.52 46.43,-46.90 49.04,-47.27 49.31,-47.60 49.59,-47.94 49.78,-47.94 49.97,-47.95 50.15,-47.91 50.33,-47.88 50.50,-47.80 50.67,-47.72 50.81,-47.60 50.96,-47.48 51.07,-47.33 51.18,-47.18 51.26,-47.01 51.33,-46.84 51.36,-46.65 51.39,-46.47 51.38,-46.28 51.36,-46.10 51.30,-45.92 51.24,-45.74 51.14,-45.58 51.04,-45.43 50.91,-45.30 50.77,-45.17 50.61,-45.07 50.45,-44.98 50.27,-44.93 50.09,-44.88 48.31,-44.93 46.53,-44.99 46.26,-45.06 46.00,-45.12 45.77,-45.27 45.54,-45.41 45.37,-45.62 45.20,-45.84 45.11,-46.09 45.02,-46.34 45.01,-46.62 45.00,-46.89 45.08,-47.15 45.16,-47.40 45.32,-47.62 45.48,-47.85 45.70,-48.00 45.92,-48.16 46.17,-48.24 46.43,-48.32 46.70,-48.31 46.98,-48.31 47.23,-48.21 47.48,-48.12 47.70,-47.95 47.91,-47.78 48.05,-47.55 48.20,-47.33 48.27,-47.06 48.33,-46.80 48.31,-46.53 48.29,-46.26 48.18,-46.01 48.07,-45.76 47.89,-45.56 47.71,-45.36 47.48,-45.22 47.24,-45.09 46.97,-45.04 46.71,-44.99 46.44,-45.02 46.17,-45.06 45.93,-45.18 45.69,-45.30 45.49,-45.49 45.30,-45.68 45.18,-45.93 45.06,-46.17 45.02,-46.44 44.99,-46.71 45.04,-46.97 45.09,-47.24 45.22,-47.47 45.35,-47.71 45.56,-47.89 45.76,-48.07 46.01,-48.18 46.26,-48.29 46.53,-48.31 46.80,-48.33 46.80,-48.33 46.80,-48.33 48.19,-48.13 49.59,-47.94 49.78,-47.94 49.97,-47.95 50.15,-47.91 50.33,-47.88 50.50,-47.80 50.67,-47.72 50.81,-47.60 50.96,-47.48 51.07,-47.33 51.18,-47.18 51.26,-47.01 51.33,-46.84 51.36,-46.65 51.39,-46.47 51.38,-46.28 51.36,-46.10 51.30,-45.92 51.24,-45.74 51.14,-45.58 51.04,-45.43 50.91,-45.30 50.77,-45.17 50.61,-45.07 50.45,-44.98 50.27,-44.93 50.09,-44.88 50.16,-44.87 50.23,-44.86 47.83,-44.41 45.44,-43.97 43.73,-43.00 42.02,-42.02 38.71,-41.99 35.41,-41.97 32.30,-41.97 29.20,-41.97 26.41,-41.98 23.63,-41.99 19.31,-42.04 14.99,-42.08 11.60,-42.22 8.22,-42.35 4.75,-42.70 1.29,-43.06 -2.50,-43.99 -6.29,-44.93 -7.82,-44.80 -9.35,-44.68 -9.40,-44.86 -9.46,-45.03 -9.47,-45.21 -9.48,-45.40 -9.45,-45.58 -9.41,-45.75 -9.34,-45.92 -9.26,-46.09 -9.15,-46.23 -9.04,-46.37 -8.89,-46.49 -8.75,-46.60 -8.58,-46.67 -8.42,-46.75 -8.24,-46.78 -8.06,-46.82 -7.88,-46.80 -7.69,-46.79 -7.52,-46.74 -7.35,-46.68 -7.19,-46.59 -7.03,-46.50 -6.90,-46.37 -6.78,-46.24 -6.68,-46.08 -6.59,-45.92 -5.33,-45.01 -4.08,-44.10 -3.01,-41.65 -1.94,-39.20 -1.90,-36.36 -1.86,-33.53 -1.77,-31.39 -1.69,-29.26 -1.52,-26.54 -1.34,-23.82 -0.94,-21.82 -0.55,-19.82 0.46,-16.89 1.49,-13.97 1.52,-9.86 1.56,-5.75 1.61,-2.87 1.65,0 1.63,0.19 1.61,0.39 1.54,0.58 1.46,0.77 1.35,0.93 1.24,1.10 1.09,1.23 0.94,1.36 0.76,1.45 0.58,1.55 0.39,1.59 0.19,1.64 -0.00,1.64 -0.20,1.64 -0.39,1.59 -0.58,1.55 -0.76,1.45 -0.94,1.36 -1.09,1.23 -1.24,1.10 -1.35,0.93 -1.46,0.77 -1.54,0.58 -1.61,0.39 -1.63,0.19 -1.65,-0.00 -1.65,-0.00 L -1.65,0 Z"></path></g><g transform="translate(619.4859926787046 467.1960113163216) rotate(0 -50 184.9999999999999)" stroke="none"><path fill="#5c940d" d="M -0.49,1.48 Q -0.49,1.48 -3.35,0.49 -6.22,-0.49 -9.39,-1.90 -12.57,-3.31 -20.39,-3.86 -28.21,-4.40 -35.43,-4.66 -42.66,-4.92 -49.56,-5.03 -56.46,-5.14 -66.94,-3.29 -77.42,-1.43 -87.68,0.31 -97.94,2.06 -107.01,4.70 -116.09,7.34 -123.69,11.29 -131.30,15.25 -144.08,24.57 -156.86,33.88 -168.06,42.64 -179.27,51.40 -189.75,60.85 -200.23,70.30 -207.54,78.12 -214.84,85.94 -219.85,92.12 -224.86,98.30 -228.87,104.71 -232.88,111.12 -235.51,117.60 -238.14,124.08 -239.24,132.47 -240.34,140.86 -240.82,153.06 -241.30,165.26 -241.50,175.25 -241.71,185.24 -241.80,195.23 -241.89,205.22 -240.97,213.22 -240.05,221.23 -237.77,228.37 -235.49,235.52 -231.65,245.27 -227.81,255.03 -222.37,264.87 -216.93,274.70 -210.77,286.60 -204.60,298.49 -195.34,310.14 -186.09,321.80 -177.34,332.54 -168.59,343.28 -159.19,351.60 -149.80,359.92 -136.31,367.24 -122.83,374.56 -111.43,377.65 -100.03,380.74 -89.49,382.06 -78.95,383.38 -64.12,379.18 -49.29,374.97 -33.38,368.41 -17.46,361.85 2.64,349.52 22.76,337.18 37.07,327.15 51.38,317.12 62.19,307.15 73.01,297.18 84.36,287.16 95.70,277.14 104.34,269.07 112.97,260.99 117.53,254.77 122.08,248.55 126.91,241.11 131.73,233.66 134.71,227.69 137.69,221.71 138.91,213.57 140.13,205.43 140.67,192.38 141.21,179.34 140.48,167.12 139.76,154.90 137.55,145.00 135.34,135.10 128.73,124.33 122.11,113.56 111.65,101.31 101.20,89.07 84.28,69.46 67.36,49.85 55.37,35.76 43.38,21.67 35.42,12.82 27.47,3.97 21.25,-1.65 15.04,-7.29 11.50,-9.64 7.97,-11.99 4.75,-12.94 1.54,-13.89 -2.45,-12.43 -6.45,-10.96 -9.03,-8.55 -11.62,-6.14 -13.64,-2.35 -15.66,1.43 -16.57,5.03 -17.49,8.64 -17.58,8.76 -17.67,8.89 -17.79,9.00 -17.91,9.10 -18.06,9.17 -18.20,9.24 -18.35,9.28 -18.50,9.31 -18.66,9.31 -18.82,9.31 -18.97,9.27 -19.13,9.23 -19.27,9.15 -19.41,9.08 -19.52,8.97 -19.64,8.87 -19.73,8.73 -19.82,8.60 -19.87,8.45 -19.92,8.30 -19.94,8.15 -19.96,7.99 -19.94,7.83 -19.91,7.68 -19.86,7.53 -19.80,7.38 -10.16,3.09 -0.51,-1.20 -0.31,-1.25 -0.10,-1.30 0.10,-1.29 0.31,-1.27 0.51,-1.19 0.70,-1.10 0.86,-0.96 1.02,-0.82 1.12,-0.63 1.23,-0.45 1.27,-0.24 1.31,-0.03 1.28,0.17 1.25,0.38 1.16,0.57 1.06,0.76 0.91,0.91 0.76,1.06 0.57,1.16 0.38,1.25 0.17,1.28 -0.03,1.31 -0.24,1.27 -0.45,1.23 -0.63,1.12 -0.82,1.02 -0.96,0.86 -1.10,0.70 -1.19,0.51 -1.27,0.31 -1.29,0.10 -1.30,-0.10 -1.25,-0.31 -1.20,-0.51 -1.09,-0.69 -0.97,-0.87 -0.81,-1.01 -0.64,-1.14 -0.44,-1.21 -0.24,-1.28 -0.03,-1.29 0.17,-1.30 0.38,-1.23 0.58,-1.17 0.75,-1.05 0.92,-0.92 1.05,-0.75 1.17,-0.58 1.23,-0.37 1.30,-0.17 1.29,0.03 1.28,0.24 1.21,0.44 1.14,0.64 1.00,0.81 0.87,0.97 0.69,1.09 0.51,1.20 0.51,1.20 0.51,1.20 -8.48,4.92 -17.49,8.64 -17.58,8.76 -17.67,8.89 -17.79,9.00 -17.91,9.10 -18.05,9.17 -18.20,9.24 -18.35,9.28 -18.50,9.31 -18.66,9.31 -18.82,9.31 -18.97,9.27 -19.13,9.23 -19.27,9.15 -19.41,9.08 -19.52,8.97 -19.64,8.87 -19.73,8.73 -19.82,8.60 -19.87,8.45 -19.92,8.30 -19.94,8.15 -19.96,7.99 -19.94,7.83 -19.91,7.68 -19.86,7.53 -19.80,7.38 -18.89,3.79 -17.97,0.19 -15.69,-3.92 -13.41,-8.04 -10.39,-10.72 -7.37,-13.40 -2.68,-14.90 2.00,-16.40 5.69,-15.30 9.39,-14.19 13.10,-11.71 16.80,-9.23 23.11,-3.50 29.42,2.22 37.40,11.09 45.38,19.97 57.36,34.05 69.34,48.13 86.27,67.75 103.20,87.36 113.77,99.77 124.35,112.18 131.12,123.34 137.89,134.49 140.14,144.62 142.38,154.74 143.11,167.09 143.83,179.44 143.28,192.64 142.73,205.83 141.39,214.34 140.05,222.84 136.99,228.97 133.94,235.09 129.07,242.60 124.20,250.10 119.49,256.50 114.77,262.91 106.11,271.01 97.44,279.11 86.12,289.11 74.79,299.11 63.84,309.19 52.89,319.27 38.51,329.34 24.14,339.42 3.83,351.85 -16.46,364.28 -32.52,370.89 -48.58,377.50 -63.89,381.74 -79.20,385.98 -89.96,384.63 -100.72,383.28 -112.39,380.08 -124.07,376.87 -137.80,369.39 -151.53,361.90 -161.07,353.42 -170.62,344.94 -179.38,334.19 -188.14,323.43 -197.54,311.57 -206.93,299.71 -213.08,287.84 -219.23,275.97 -224.74,265.98 -230.25,255.99 -234.12,246.15 -237.99,236.31 -240.33,228.92 -242.66,221.53 -243.59,213.37 -244.51,205.20 -244.43,195.19 -244.34,185.18 -244.13,175.17 -243.93,165.16 -243.44,152.84 -242.95,140.52 -241.76,131.81 -240.58,123.11 -237.85,116.42 -235.11,109.73 -231.01,103.19 -226.90,96.64 -221.84,90.39 -216.77,84.14 -209.38,76.24 -202.00,68.34 -191.44,58.83 -180.89,49.32 -169.66,40.53 -158.42,31.74 -145.47,22.32 -132.53,12.90 -124.68,8.84 -116.84,4.78 -107.62,2.10 -98.39,-0.57 -88.14,-2.33 -77.89,-4.09 -67.15,-5.98 -56.42,-7.87 -49.49,-7.77 -42.56,-7.68 -35.28,-7.44 -28.01,-7.21 -19.74,-6.59 -11.47,-5.97 -8.37,-4.65 -5.27,-3.33 -2.39,-2.40 0.49,-1.48 0.66,-1.40 0.83,-1.32 0.98,-1.20 1.12,-1.08 1.23,-0.93 1.35,-0.78 1.42,-0.60 1.50,-0.43 1.53,-0.24 1.56,-0.06 1.54,0.12 1.53,0.31 1.47,0.49 1.41,0.66 1.31,0.82 1.21,0.98 1.07,1.11 0.93,1.24 0.77,1.34 0.61,1.43 0.43,1.48 0.25,1.54 0.06,1.54 -0.12,1.55 -0.30,1.51 -0.49,1.48 -0.49,1.48 L -0.49,1.48 Z"></path></g><g transform="translate(866.1526593453714 743.8626779829881) rotate(0 -55 -18.333333333333258)" stroke="none"><path fill="#5c940d" d="M 0,1.56 Q 0,1.56 -3.84,1.52 -7.68,1.49 -11.40,0.48 -15.13,-0.52 -19.53,-1.91 -23.93,-3.30 -27.61,-3.87 -31.29,-4.44 -34.92,-5.68 -38.56,-6.92 -41.85,-7.41 -45.15,-7.90 -48.46,-8.12 -51.77,-8.34 -54.17,-8.44 -56.56,-8.54 -58.79,-9.61 -61.01,-10.67 -62.90,-12.11 -64.79,-13.56 -66.35,-13.99 -67.91,-14.42 -69.49,-14.57 -71.06,-14.73 -72.68,-14.77 -74.29,-14.82 -76.20,-14.96 -78.12,-15.10 -79.23,-16.18 -80.34,-17.27 -81.42,-17.51 -82.50,-17.75 -83.35,-19.09 -84.21,-20.43 -86.49,-20.79 -88.77,-21.16 -89.81,-22.41 -90.85,-23.67 -93.15,-24.04 -95.45,-24.41 -96.51,-25.68 -97.57,-26.94 -99.86,-27.32 -102.14,-27.69 -103.21,-28.97 -104.28,-30.24 -106.08,-31.89 -107.88,-33.54 -109.45,-33.87 -111.01,-34.20 -111.38,-34.43 -111.75,-34.65 -112.02,-34.98 -112.30,-35.32 -112.45,-35.72 -112.60,-36.12 -112.62,-36.55 -112.64,-36.98 -112.52,-37.40 -112.40,-37.81 -112.15,-38.16 -111.91,-38.52 -111.56,-38.77 -111.21,-39.03 -110.80,-39.16 -110.39,-39.30 -109.96,-39.29 -109.53,-39.29 -109.12,-39.14 -108.72,-39.00 -108.38,-38.74 -108.04,-38.47 -107.80,-38.11 -107.56,-37.75 -107.45,-37.33 -107.34,-36.92 -107.37,-36.49 -107.40,-36.06 -107.56,-35.66 -107.73,-35.26 -108.01,-34.93 -108.30,-34.61 -108.67,-34.39 -109.04,-34.17 -109.46,-34.09 -109.88,-34.00 -110.31,-34.05 -110.74,-34.10 -111.13,-34.29 -111.52,-34.47 -111.83,-34.78 -112.14,-35.08 -112.33,-35.46 -112.53,-35.84 -112.60,-36.27 -112.66,-36.70 -112.58,-37.12 -112.51,-37.54 -112.30,-37.92 -112.10,-38.30 -111.78,-38.59 -111.46,-38.89 -111.07,-39.06 -110.68,-39.24 -110.25,-39.28 -109.82,-39.32 -109.40,-39.22 -108.98,-39.12 -108.98,-39.12 -108.98,-39.13 -106.26,-36.90 -103.54,-34.68 -101.84,-33.21 -100.14,-31.74 -98.74,-31.73 -97.34,-31.71 -95.42,-30.03 -93.50,-28.35 -92.10,-28.32 -90.70,-28.29 -88.80,-26.59 -86.89,-24.89 -85.48,-24.81 -84.07,-24.73 -82.25,-22.87 -80.43,-21.01 -78.68,-19.55 -76.93,-18.09 -75.50,-18.14 -74.08,-18.19 -72.34,-18.03 -70.60,-17.86 -68.79,-17.51 -66.99,-17.17 -65.10,-16.42 -63.22,-15.68 -61.51,-14.36 -59.81,-13.04 -58.08,-12.11 -56.36,-11.18 -53.98,-11.09 -51.60,-11.01 -48.17,-10.79 -44.75,-10.57 -41.22,-10.04 -37.68,-9.50 -34.27,-8.34 -30.86,-7.17 -26.98,-6.58 -23.10,-5.99 -18.74,-4.65 -14.38,-3.31 -11.01,-2.40 -7.65,-1.49 -3.82,-1.52 0,-1.56 0.18,-1.53 0.37,-1.51 0.54,-1.45 0.72,-1.38 0.88,-1.27 1.03,-1.16 1.16,-1.02 1.28,-0.88 1.37,-0.72 1.46,-0.55 1.50,-0.37 1.55,-0.18 1.55,0.00 1.55,0.18 1.50,0.37 1.46,0.55 1.37,0.72 1.28,0.88 1.16,1.02 1.03,1.16 0.88,1.27 0.72,1.38 0.54,1.45 0.37,1.51 0.18,1.53 -0.00,1.56 -0.00,1.56 L 0,1.56 Z"></path></g><g transform="translate(762.8193260120379 743.8626779829881) rotate(0 6.66666666666697 -30)" stroke="none"><path fill="#5c940d" d="M -1.97,0 Q -1.97,0 -1.93,-1.91 -1.90,-3.83 -1.90,-5.60 -1.90,-7.37 -1.92,-9.09 -1.93,-10.80 -1.93,-12.42 -1.93,-14.04 -2.74,-15.31 -3.55,-16.58 -4.74,-18.15 -5.92,-19.71 -7.29,-20.26 -8.65,-20.81 -9.70,-22.35 -10.74,-23.90 -11.85,-25.27 -12.96,-26.64 -13.51,-29.10 -14.06,-31.55 -13.27,-32.71 -12.48,-33.87 -10.00,-35.16 -7.53,-36.46 -5.41,-37.04 -3.29,-37.61 -0.40,-37.80 2.48,-37.99 5.34,-38.93 8.20,-39.87 9.22,-41.11 10.24,-42.35 12.88,-44.00 15.53,-45.65 17.48,-47.19 19.43,-48.73 21.12,-51.17 22.81,-53.61 23.51,-55.52 24.22,-57.43 24.71,-58.98 25.20,-60.54 25.32,-60.76 25.45,-60.98 25.64,-61.15 25.83,-61.31 26.06,-61.41 26.29,-61.51 26.54,-61.53 26.80,-61.55 27.04,-61.49 27.29,-61.43 27.50,-61.29 27.71,-61.15 27.87,-60.95 28.02,-60.76 28.11,-60.52 28.20,-60.28 28.20,-60.03 28.21,-59.78 28.13,-59.54 28.06,-59.29 27.91,-59.09 27.76,-58.89 27.55,-58.74 27.35,-58.59 27.11,-58.52 26.86,-58.45 26.61,-58.46 26.36,-58.46 26.12,-58.55 25.89,-58.64 25.69,-58.80 25.49,-58.96 25.36,-59.17 25.22,-59.39 25.17,-59.63 25.11,-59.88 25.13,-60.13 25.15,-60.38 25.25,-60.61 25.35,-60.84 25.52,-61.03 25.69,-61.22 25.91,-61.34 26.13,-61.46 26.38,-61.51 26.63,-61.56 26.88,-61.52 27.13,-61.48 27.35,-61.37 27.58,-61.26 27.76,-61.08 27.93,-60.90 28.05,-60.67 28.16,-60.45 28.19,-60.20 28.22,-59.94 28.17,-59.70 28.12,-59.45 28.12,-59.45 28.12,-59.45 27.48,-57.95 26.83,-56.46 25.99,-54.23 25.16,-52.01 23.22,-49.24 21.29,-46.47 19.22,-44.77 17.15,-43.08 14.85,-41.61 12.56,-40.15 10.96,-38.58 9.37,-37.00 6.07,-35.83 2.78,-34.67 0.22,-34.41 -2.34,-34.14 -4.03,-33.66 -5.72,-33.18 -7.88,-31.06 -10.04,-28.93 -8.41,-26.34 -6.79,-23.75 -5.07,-22.88 -3.36,-22.01 -1.82,-20.23 -0.27,-18.46 0.82,-16.38 1.93,-14.30 1.93,-12.55 1.93,-10.80 1.92,-9.09 1.90,-7.37 1.90,-5.60 1.90,-3.83 1.93,-1.91 1.97,0 1.94,0.23 1.91,0.47 1.83,0.69 1.74,0.91 1.61,1.11 1.47,1.30 1.29,1.46 1.12,1.62 0.91,1.73 0.69,1.84 0.46,1.90 0.23,1.95 -0.00,1.95 -0.23,1.95 -0.46,1.90 -0.70,1.84 -0.91,1.73 -1.12,1.62 -1.29,1.46 -1.47,1.30 -1.61,1.11 -1.74,0.91 -1.83,0.69 -1.91,0.47 -1.94,0.23 -1.97,-0.00 -1.97,-0.00 L -1.97,0 Z"></path></g><g transform="translate(702.8193260120379 760.5293446496548) rotate(0 78.33333333333348 13.333333333333371)" stroke="none"><path fill="#5c940d" d="M 1.10,-1.10 Q 1.10,-1.10 2.93,0.80 4.77,2.71 8.14,3.38 11.52,4.05 16.93,5.37 22.34,6.70 27.42,7.25 32.50,7.80 36.58,8.04 40.66,8.29 46.33,9.36 51.99,10.44 58.12,10.88 64.25,11.33 69.75,11.52 75.26,11.72 82.61,14.73 89.96,17.73 96.77,19.93 103.58,22.13 108.34,23.05 113.10,23.97 117.01,24.37 120.92,24.76 124.49,24.93 128.06,25.09 130.54,25.17 133.02,25.24 134.85,25.32 136.68,25.40 138.77,23.81 140.86,22.21 142.53,21.96 144.20,21.70 146.85,21.70 149.49,21.70 151.36,21.79 153.22,21.89 153.97,19.01 154.71,16.14 154.85,15.84 154.98,15.54 155.21,15.30 155.43,15.06 155.72,14.91 156.00,14.75 156.32,14.70 156.65,14.64 156.97,14.69 157.29,14.74 157.58,14.89 157.87,15.05 158.10,15.28 158.32,15.52 158.46,15.81 158.60,16.11 158.64,16.43 158.68,16.76 158.61,17.08 158.54,17.40 158.38,17.68 158.21,17.96 157.96,18.17 157.72,18.38 157.41,18.51 157.11,18.63 156.78,18.65 156.46,18.67 156.14,18.59 155.83,18.50 155.56,18.32 155.28,18.14 155.08,17.88 154.88,17.62 154.78,17.31 154.67,17.00 154.67,16.68 154.67,16.35 154.77,16.04 154.87,15.73 155.07,15.47 155.26,15.21 155.53,15.02 155.80,14.84 156.11,14.75 156.43,14.66 156.76,14.67 157.08,14.69 157.39,14.81 157.69,14.92 157.94,15.13 158.19,15.34 158.36,15.62 158.53,15.90 158.60,16.22 158.68,16.54 158.64,16.86 158.61,17.19 158.61,17.19 158.61,17.19 157.70,19.88 156.79,22.58 155.42,23.72 154.05,24.86 151.82,25.02 149.59,25.17 147.11,25.32 144.62,25.46 142.22,25.67 139.81,25.87 138.58,26.85 137.34,27.83 135.14,27.85 132.94,27.87 130.44,27.80 127.94,27.73 124.30,27.55 120.66,27.38 116.63,26.97 112.60,26.57 107.69,25.61 102.77,24.65 95.86,22.42 88.94,20.18 82.02,17.28 75.10,14.37 69.58,14.19 64.06,14.00 57.78,13.54 51.49,13.09 46.00,12.05 40.50,11.01 36.35,10.78 32.20,10.55 26.94,9.99 21.68,9.44 16.29,8.15 10.90,6.87 6.89,5.91 2.89,4.95 0.89,3.02 -1.10,1.10 -1.22,0.95 -1.33,0.80 -1.41,0.63 -1.49,0.46 -1.52,0.27 -1.55,0.09 -1.54,-0.09 -1.53,-0.28 -1.48,-0.46 -1.42,-0.64 -1.32,-0.80 -1.22,-0.96 -1.09,-1.09 -0.96,-1.22 -0.80,-1.32 -0.64,-1.42 -0.46,-1.48 -0.28,-1.53 -0.09,-1.54 0.09,-1.55 0.27,-1.52 0.46,-1.49 0.63,-1.41 0.80,-1.33 0.95,-1.22 1.10,-1.10 1.10,-1.10 L 1.10,-1.10 Z"></path></g><g transform="translate(819.4859926787049 760.5293446496548) rotate(0 23.333333333333258 23.33333333333337)" stroke="none"><path fill="#5c940d" d="M 1.40,-1.40 Q 1.40,-1.40 2.39,-0.48 3.38,0.42 5.45,1.72 7.52,3.02 10.50,5.67 13.48,8.32 15.52,9.35 17.55,10.38 18.74,11.96 19.93,13.53 21.00,13.80 22.06,14.08 23.42,14.24 24.78,14.40 26.70,15.62 28.62,16.85 30.17,17.28 31.71,17.72 32.88,19.16 34.05,20.61 34.33,22.11 34.60,23.62 36.46,23.83 38.31,24.05 39.74,24.14 41.18,24.24 43.11,24.48 45.04,24.73 45.37,25.47 45.71,26.21 45.99,26.25 46.27,26.30 46.53,26.40 46.79,26.51 47.02,26.68 47.24,26.84 47.42,27.06 47.61,27.28 47.73,27.53 47.85,27.78 47.91,28.06 47.97,28.33 47.96,28.62 47.96,28.90 47.88,29.17 47.80,29.44 47.67,29.69 47.53,29.93 47.33,30.14 47.14,30.34 46.91,30.50 46.67,30.65 46.40,30.74 46.14,30.83 45.86,30.86 45.57,30.89 43.88,31.51 42.19,32.14 39.99,32.95 37.78,33.77 35.92,34.97 34.05,36.17 31.16,37.70 28.28,39.23 25.13,40.81 21.99,42.39 19.57,43.09 17.15,43.79 15.39,44.93 13.63,46.07 11.68,46.72 9.73,47.37 7.90,47.67 6.08,47.97 3.09,48.24 0.10,48.51 -0.19,48.48 -0.48,48.44 -0.76,48.32 -1.03,48.19 -1.25,47.99 -1.46,47.78 -1.60,47.52 -1.75,47.26 -1.79,46.96 -1.84,46.67 -1.80,46.37 -1.75,46.08 -1.61,45.81 -1.47,45.55 -1.25,45.34 -1.04,45.13 -0.77,45.01 -0.49,44.88 -0.20,44.85 0.09,44.82 0.38,44.88 0.67,44.94 0.93,45.10 1.19,45.25 1.38,45.48 1.58,45.70 1.69,45.98 1.80,46.26 1.82,46.56 1.83,46.86 1.75,47.15 1.67,47.43 1.51,47.68 1.34,47.93 1.10,48.11 0.87,48.29 0.58,48.39 0.30,48.49 0.00,48.49 -0.29,48.49 -0.57,48.39 -0.86,48.30 -1.10,48.12 -1.33,47.94 -1.50,47.69 -1.67,47.44 -1.75,47.15 -1.83,46.87 -1.82,46.57 -1.80,46.27 -1.69,45.99 -1.58,45.71 -1.39,45.48 -1.20,45.26 -0.94,45.10 -0.68,44.95 -0.39,44.88 -0.10,44.82 -0.10,44.82 -0.10,44.82 2.77,44.75 5.64,44.68 7.24,44.53 8.84,44.38 10.44,43.97 12.05,43.56 14.13,42.20 16.22,40.84 18.35,40.16 20.48,39.48 23.52,37.82 26.56,36.17 29.20,34.59 31.85,33.02 33.97,31.43 36.10,29.83 39.62,28.59 43.13,27.34 44.42,26.78 45.71,26.21 45.99,26.25 46.27,26.30 46.53,26.40 46.79,26.51 47.02,26.68 47.24,26.84 47.42,27.06 47.61,27.28 47.73,27.53 47.85,27.78 47.91,28.06 47.97,28.33 47.96,28.62 47.96,28.90 47.88,29.17 47.80,29.44 47.67,29.69 47.53,29.93 47.33,30.14 47.14,30.34 46.91,30.50 46.67,30.65 46.40,30.74 46.14,30.83 45.86,30.86 45.57,30.89 44.53,29.67 43.49,28.45 42.17,28.61 40.86,28.76 39.17,28.63 37.49,28.50 35.75,28.10 34.00,27.69 32.59,26.56 31.17,25.43 30.63,23.18 30.09,20.93 28.35,20.46 26.61,19.99 25.31,19.08 24.01,18.18 22.30,17.83 20.59,17.48 18.95,16.55 17.30,15.62 16.63,14.38 15.96,13.14 13.60,12.05 11.25,10.96 8.43,8.61 5.60,6.27 3.02,4.83 0.44,3.40 -0.47,2.40 -1.40,1.40 -1.54,1.21 -1.69,1.02 -1.79,0.80 -1.89,0.58 -1.93,0.35 -1.97,0.11 -1.96,-0.11 -1.94,-0.35 -1.87,-0.58 -1.80,-0.81 -1.68,-1.01 -1.56,-1.22 -1.39,-1.39 -1.22,-1.56 -1.01,-1.68 -0.81,-1.80 -0.58,-1.87 -0.35,-1.94 -0.11,-1.96 0.11,-1.97 0.35,-1.93 0.58,-1.89 0.80,-1.79 1.02,-1.69 1.21,-1.54 1.40,-1.40 1.40,-1.40 L 1.40,-1.40 Z"></path></g><g transform="translate(862.8193260120379 797.1960113163216) rotate(0 0.00004999999998744897 0.00004999999998744897)" stroke="none"><path fill="#5c940d" d="M 1.57,-1.57 Q 1.57,-1.57 1.77,-1.27 1.98,-0.98 2.09,-0.64 2.20,-0.29 2.19,0.05 2.18,0.41 2.05,0.75 1.93,1.09 1.70,1.37 1.48,1.65 1.18,1.84 0.87,2.04 0.52,2.12 0.18,2.21 -0.17,2.18 -0.53,2.15 -0.86,2.01 -1.19,1.87 -1.46,1.63 -1.73,1.39 -1.90,1.07 -2.08,0.76 -2.15,0.41 -2.21,0.05 -2.17,-0.29 -2.12,-0.65 -1.96,-0.97 -1.80,-1.29 -1.54,-1.54 -1.29,-1.80 -0.97,-1.96 -0.65,-2.12 -0.29,-2.17 0.06,-2.21 0.41,-2.15 0.76,-2.08 1.07,-1.90 1.39,-1.73 1.63,-1.46 1.87,-1.19 2.01,-0.86 2.15,-0.53 2.18,-0.17 2.21,0.18 2.12,0.52 2.03,0.87 1.84,1.18 1.65,1.48 1.37,1.70 1.09,1.93 0.75,2.05 0.41,2.18 0.05,2.19 -0.30,2.20 -0.64,2.09 -0.98,1.98 -1.27,1.77 -1.57,1.56 -1.57,1.57 -1.57,1.57 -1.73,1.35 -1.90,1.14 -2.01,0.90 -2.12,0.66 -2.16,0.39 -2.21,0.13 -2.20,-0.13 -2.18,-0.40 -2.10,-0.65 -2.02,-0.91 -1.88,-1.14 -1.74,-1.36 -1.55,-1.55 -1.36,-1.74 -1.14,-1.88 -0.91,-2.02 -0.65,-2.10 -0.40,-2.18 -0.13,-2.20 0.13,-2.21 0.39,-2.16 0.66,-2.12 0.90,-2.01 1.14,-1.90 1.35,-1.73 1.57,-1.57 1.57,-1.57 L 1.57,-1.57 Z"></path></g><g transform="translate(869.4859926787049 800.5293446496548) rotate(0 130 88.33333333333337)" stroke="none"><path fill="#364fc7" d="M 1.21,-0.97 Q 1.21,-0.97 5.02,3.83 8.83,8.64 14.19,13.48 19.55,18.32 29.41,24.18 39.28,30.03 48.31,35.43 57.34,40.84 65.92,45.03 74.50,49.22 83.96,54.87 93.43,60.53 101.29,65.81 109.16,71.10 118.24,77.17 127.31,83.25 139.79,91.58 152.28,99.91 163.30,106.31 174.32,112.70 182.88,118.32 191.44,123.94 197.99,129.24 204.54,134.53 210.09,137.66 215.64,140.80 220.94,144.08 226.23,147.37 229.48,149.76 232.73,152.15 234.23,154.26 235.74,156.37 236.45,158.31 237.16,160.25 237.39,161.90 237.62,163.56 239.23,165.36 240.83,167.16 243.12,167.55 245.41,167.94 246.41,169.18 247.42,170.42 249.75,170.79 252.08,171.16 253.13,172.41 254.18,173.66 257.25,173.91 260.31,174.16 260.70,174.27 261.10,174.39 261.43,174.63 261.76,174.86 262.00,175.19 262.25,175.52 262.37,175.91 262.49,176.30 262.49,176.71 262.48,177.11 262.34,177.50 262.20,177.88 261.95,178.20 261.70,178.53 261.36,178.75 261.01,178.97 260.62,179.07 260.22,179.18 259.82,179.15 259.41,179.12 259.03,178.96 258.65,178.80 258.35,178.53 258.04,178.26 257.84,177.91 257.63,177.55 257.55,177.15 257.47,176.75 257.52,176.35 257.58,175.94 257.75,175.58 257.93,175.21 258.22,174.92 258.50,174.62 258.87,174.44 259.23,174.26 259.64,174.20 260.04,174.14 260.44,174.21 260.84,174.28 261.20,174.48 261.56,174.68 261.83,174.98 262.11,175.28 262.27,175.66 262.44,176.03 262.48,176.44 262.51,176.84 262.42,177.24 262.32,177.64 262.11,177.98 261.89,178.33 261.57,178.59 261.26,178.85 260.87,178.99 260.49,179.14 260.08,179.15 259.68,179.17 259.68,179.17 259.68,179.17 256.85,178.74 254.03,178.31 252.12,176.63 250.21,174.94 248.81,174.89 247.41,174.84 245.52,173.11 243.64,171.38 242.21,171.22 240.78,171.06 239.30,170.07 237.82,169.08 237.56,167.97 237.31,166.86 236.14,165.77 234.98,164.68 234.72,162.90 234.46,161.12 234.01,159.48 233.56,157.84 232.35,156.03 231.14,154.23 227.99,151.92 224.84,149.61 219.59,146.35 214.34,143.09 208.62,139.84 202.89,136.59 196.44,131.37 189.99,126.15 181.49,120.57 172.99,114.99 161.90,108.55 150.80,102.12 138.32,93.79 125.83,85.46 116.75,79.39 107.66,73.33 99.86,68.08 92.05,62.84 82.67,57.26 73.30,51.67 64.62,47.44 55.93,43.21 46.89,37.83 37.84,32.45 27.73,26.47 17.63,20.48 12.06,15.50 6.50,10.51 2.64,5.74 -1.21,0.97 -1.31,0.81 -1.41,0.65 -1.47,0.47 -1.53,0.29 -1.54,0.10 -1.56,-0.07 -1.52,-0.26 -1.49,-0.44 -1.42,-0.62 -1.34,-0.79 -1.23,-0.94 -1.11,-1.09 -0.96,-1.21 -0.82,-1.32 -0.65,-1.40 -0.47,-1.48 -0.29,-1.52 -0.11,-1.55 0.07,-1.54 0.26,-1.53 0.44,-1.48 0.62,-1.43 0.78,-1.33 0.95,-1.23 1.08,-1.10 1.21,-0.97 1.21,-0.97 L 1.21,-0.97 Z"></path></g><g transform="translate(1079.4859926787049 977.1960113163216) rotate(0 28.333333333333258 -11.666666666666742)" stroke="none"><path fill="#364fc7" d="M 0,-1.72 Q 0,-1.72 1.91,-1.72 3.83,-1.71 5.60,-1.74 7.37,-1.76 9.09,-1.79 10.80,-1.82 13.44,-1.75 16.09,-1.68 18.21,-1.63 20.33,-1.58 22.49,-0.52 24.65,0.54 27.33,1.92 30.00,3.31 31.97,3.87 33.93,4.42 35.69,4.60 37.46,4.79 39.15,4.84 40.84,4.89 42.52,4.88 44.19,4.88 46.82,4.95 49.44,5.03 51.33,5.14 53.22,5.26 53.98,4.04 54.74,2.83 52.53,0.16 50.31,-2.51 48.81,-6.46 47.30,-10.41 45.81,-12.89 44.32,-15.37 43.61,-18.57 42.90,-21.77 41.78,-22.73 40.65,-23.70 40.00,-25.32 39.35,-26.95 37.24,-27.29 35.12,-27.63 32.48,-27.74 29.84,-27.86 29.50,-27.94 29.17,-28.02 28.87,-28.21 28.58,-28.39 28.36,-28.66 28.14,-28.93 28.02,-29.25 27.90,-29.57 27.89,-29.92 27.87,-30.27 27.97,-30.60 28.07,-30.93 28.27,-31.21 28.47,-31.49 28.75,-31.70 29.03,-31.90 29.36,-32.01 29.69,-32.11 30.03,-32.11 30.38,-32.10 30.71,-31.98 31.03,-31.87 31.30,-31.65 31.58,-31.44 31.76,-31.15 31.95,-30.86 32.04,-30.52 32.13,-30.19 32.10,-29.84 32.07,-29.50 31.94,-29.18 31.81,-28.86 31.58,-28.60 31.35,-28.34 31.05,-28.17 30.75,-27.99 30.41,-27.93 30.07,-27.86 29.73,-27.90 29.38,-27.95 29.07,-28.10 28.76,-28.25 28.51,-28.49 28.27,-28.73 28.11,-29.04 27.96,-29.35 27.91,-29.69 27.86,-30.04 27.92,-30.38 27.98,-30.72 28.15,-31.02 28.32,-31.32 28.57,-31.55 28.83,-31.79 29.15,-31.93 29.46,-32.07 29.81,-32.10 30.15,-32.13 30.15,-32.13 30.15,-32.13 33.00,-31.84 35.85,-31.56 37.57,-31.15 39.29,-30.74 40.75,-29.67 42.21,-28.60 42.62,-27.22 43.03,-25.84 44.40,-24.25 45.77,-22.66 46.42,-19.84 47.07,-17.02 48.78,-14.35 50.49,-11.69 52.00,-8.06 53.52,-4.42 54.64,-2.59 55.77,-0.76 56.62,0.21 57.47,1.19 57.08,3.52 56.69,5.85 55.32,6.94 53.95,8.04 51.68,8.14 49.42,8.24 46.76,8.28 44.10,8.31 42.38,8.22 40.65,8.13 38.85,7.96 37.06,7.80 35.11,7.50 33.17,7.19 30.92,6.58 28.67,5.97 25.95,4.63 23.22,3.29 21.69,2.44 20.17,1.58 18.13,1.63 16.09,1.68 13.44,1.75 10.80,1.82 9.09,1.79 7.37,1.76 5.60,1.74 3.83,1.71 1.91,1.72 0,1.72 -0.20,1.70 -0.41,1.67 -0.60,1.60 -0.80,1.53 -0.97,1.41 -1.14,1.29 -1.28,1.13 -1.42,0.98 -1.51,0.79 -1.61,0.61 -1.66,0.41 -1.71,0.20 -1.71,-0.00 -1.71,-0.20 -1.66,-0.41 -1.61,-0.61 -1.51,-0.79 -1.42,-0.98 -1.28,-1.13 -1.14,-1.29 -0.97,-1.41 -0.80,-1.53 -0.60,-1.60 -0.41,-1.67 -0.20,-1.70 0.00,-1.72 0.00,-1.72 L 0,-1.72 Z"></path></g><g transform="translate(1126.1526593453714 997.1960113163216) rotate(0 315 154.9999999999999)" stroke="none"><path fill="#862e9c" d="M 0.69,-1.39 Q 0.69,-1.39 4.51,0.54 8.33,2.49 21.37,7.13 34.40,11.76 48.59,16.63 62.79,21.49 78.42,27.41 94.06,33.32 115.15,44.50 136.24,55.67 157.60,66.15 178.97,76.62 198.61,86.84 218.26,97.06 238.09,107.14 257.93,117.23 273.06,124.39 288.18,131.54 306.17,142.28 324.16,153.03 339.48,163.35 354.80,173.67 367.98,181.87 381.17,190.07 393.51,198.36 405.85,206.66 414.89,212.08 423.93,217.50 434.45,222.66 444.96,227.82 458.13,235.80 471.29,243.78 482.66,251.98 494.03,260.18 503.64,267.50 513.26,274.81 518.25,277.88 523.23,280.95 527.27,283.22 531.30,285.48 536.76,287.36 542.21,289.24 552.25,292.94 562.29,296.64 569.42,299.16 576.55,301.69 581.42,302.74 586.29,303.79 590.25,304.24 594.20,304.68 597.95,305.86 601.70,307.04 604.13,307.51 606.55,307.98 608.52,308.16 610.48,308.34 612.26,308.36 614.05,308.39 615.76,308.37 617.47,308.35 619.10,308.32 620.73,308.30 622.04,307.45 623.34,306.60 624.91,305.39 626.48,304.17 627.42,301.71 628.37,299.24 628.53,299.01 628.70,298.77 628.93,298.59 629.16,298.42 629.43,298.32 629.70,298.23 629.99,298.23 630.28,298.23 630.56,298.32 630.83,298.41 631.06,298.59 631.29,298.76 631.46,299.00 631.62,299.24 631.70,299.52 631.77,299.80 631.76,300.09 631.74,300.38 631.63,300.65 631.53,300.92 631.34,301.14 631.15,301.36 630.91,301.51 630.66,301.66 630.37,301.72 630.09,301.78 629.80,301.75 629.52,301.72 629.25,301.60 628.99,301.48 628.78,301.28 628.57,301.08 628.44,300.82 628.30,300.57 628.25,300.28 628.21,300.00 628.25,299.71 628.30,299.42 628.44,299.17 628.57,298.91 628.78,298.71 628.99,298.52 629.25,298.39 629.52,298.27 629.80,298.24 630.09,298.21 630.37,298.27 630.66,298.33 630.90,298.48 631.15,298.63 631.34,298.85 631.53,299.07 631.63,299.34 631.74,299.61 631.76,299.90 631.77,300.19 631.70,300.47 631.62,300.75 631.62,300.75 631.62,300.75 630.09,303.63 628.57,306.52 626.79,308.03 625.02,309.53 622.97,310.59 620.92,311.64 619.16,311.59 617.40,311.53 615.65,311.44 613.90,311.34 612.05,311.19 610.20,311.04 608.13,310.80 606.05,310.56 603.48,310.05 600.91,309.54 597.40,308.42 593.90,307.29 589.82,306.82 585.73,306.36 580.70,305.26 575.67,304.16 568.53,301.63 561.38,299.10 551.37,295.41 541.35,291.72 535.69,289.75 530.02,287.77 525.94,285.48 521.86,283.19 516.76,280.05 511.67,276.91 502.08,269.61 492.49,262.31 481.21,254.17 469.93,246.03 456.86,238.10 443.80,230.18 433.19,224.97 422.58,219.75 413.48,214.30 404.38,208.85 392.08,200.58 379.78,192.31 366.55,184.09 353.32,175.86 338.06,165.58 322.80,155.30 304.92,144.62 287.04,133.94 271.88,126.77 256.72,119.61 236.87,109.52 217.02,99.43 197.40,89.24 177.78,79.05 156.37,68.56 134.96,58.08 114.02,46.99 93.08,35.91 77.48,30.03 61.87,24.16 47.66,19.32 33.44,14.49 20.22,9.83 6.99,5.17 3.15,3.28 -0.69,1.39 -0.85,1.29 -1.01,1.18 -1.14,1.05 -1.26,0.91 -1.35,0.74 -1.44,0.58 -1.49,0.40 -1.54,0.21 -1.55,0.03 -1.55,-0.15 -1.51,-0.34 -1.47,-0.52 -1.38,-0.69 -1.30,-0.86 -1.18,-1.00 -1.05,-1.14 -0.90,-1.25 -0.75,-1.36 -0.57,-1.43 -0.40,-1.50 -0.21,-1.53 -0.03,-1.56 0.15,-1.54 0.34,-1.52 0.52,-1.46 0.69,-1.39 0.69,-1.39 L 0.69,-1.39 Z"></path></g><g transform="translate(1686.1526593453714 1320.5293446496548) rotate(0 36.666666666666515 -33.33333333333326)" stroke="none"><path fill="#862e9c" d="M 0,-1.61 Q 0,-1.61 1.91,-1.62 3.83,-1.62 5.60,-1.66 7.37,-1.69 10.04,-1.64 12.71,-1.59 15.77,-1.55 18.82,-1.51 22.03,-1.48 25.24,-1.46 28.53,-1.44 31.81,-1.42 35.12,-1.40 38.43,-1.39 41.76,-1.38 45.08,-1.37 47.45,-1.36 49.82,-1.35 51.79,-1.38 53.76,-1.41 56.51,-1.40 59.26,-1.38 61.23,-1.31 63.20,-1.23 65.35,-2.83 67.50,-4.43 68.92,-4.52 70.34,-4.62 70.59,-6.48 70.84,-8.34 70.92,-9.77 71.01,-11.20 71.16,-15.62 71.32,-20.04 71.43,-23.83 71.54,-27.63 69.76,-31.83 67.97,-36.03 66.23,-40.87 64.49,-45.71 62.88,-48.59 61.26,-51.46 59.77,-52.54 58.28,-53.63 56.57,-55.18 54.86,-56.73 53.17,-58.37 51.48,-60.00 50.64,-61.75 49.80,-63.49 47.81,-64.32 45.82,-65.14 45.60,-65.32 45.38,-65.49 45.23,-65.72 45.07,-65.96 45.00,-66.23 44.93,-66.50 44.95,-66.78 44.97,-67.06 45.08,-67.32 45.19,-67.58 45.38,-67.79 45.56,-68.00 45.80,-68.14 46.05,-68.28 46.32,-68.34 46.60,-68.40 46.88,-68.36 47.15,-68.33 47.41,-68.20 47.66,-68.08 47.86,-67.89 48.06,-67.69 48.19,-67.44 48.32,-67.19 48.36,-66.91 48.40,-66.63 48.35,-66.36 48.30,-66.08 48.16,-65.83 48.03,-65.59 47.82,-65.40 47.61,-65.21 47.35,-65.10 47.10,-64.98 46.82,-64.96 46.54,-64.93 46.26,-65.00 45.99,-65.06 45.75,-65.21 45.52,-65.36 45.34,-65.58 45.16,-65.79 45.06,-66.05 44.96,-66.32 44.95,-66.60 44.94,-66.88 45.02,-67.15 45.10,-67.42 45.26,-67.65 45.42,-67.88 45.65,-68.04 45.88,-68.21 46.14,-68.29 46.41,-68.38 46.69,-68.37 46.97,-68.37 47.24,-68.28 47.50,-68.18 47.50,-68.18 47.50,-68.18 49.90,-66.59 52.29,-64.99 52.87,-63.46 53.44,-61.94 55.09,-60.38 56.74,-58.83 58.38,-57.38 60.03,-55.94 61.90,-54.47 63.78,-53.01 65.59,-49.90 67.40,-46.79 69.20,-42.05 71.00,-37.32 73.02,-32.52 75.05,-27.72 75.12,-23.86 75.19,-20.00 75.25,-15.44 75.30,-10.87 75.15,-9.20 75.00,-7.52 74.56,-5.81 74.11,-4.10 72.96,-2.81 71.80,-1.52 70.16,-1.27 68.52,-1.02 67.46,-0.89 66.40,-0.76 65.11,0.23 63.83,1.23 61.54,1.31 59.26,1.38 56.51,1.40 53.76,1.41 51.79,1.38 49.82,1.35 47.45,1.36 45.08,1.37 41.76,1.38 38.43,1.39 35.12,1.40 31.81,1.42 28.53,1.44 25.24,1.46 22.03,1.48 18.82,1.51 15.77,1.55 12.71,1.59 10.04,1.64 7.37,1.69 5.60,1.66 3.83,1.62 1.91,1.62 0,1.61 -0.19,1.58 -0.38,1.56 -0.56,1.49 -0.74,1.42 -0.90,1.31 -1.06,1.20 -1.19,1.06 -1.32,0.91 -1.41,0.74 -1.50,0.57 -1.55,0.38 -1.60,0.19 -1.60,-0.00 -1.60,-0.19 -1.55,-0.38 -1.50,-0.57 -1.41,-0.74 -1.32,-0.91 -1.19,-1.06 -1.06,-1.20 -0.90,-1.31 -0.74,-1.42 -0.56,-1.49 -0.38,-1.56 -0.19,-1.58 0.00,-1.61 0.00,-1.61 L 0,-1.61 Z"></path></g><g transform="translate(1845.319326012038 1293.5293446496548) rotate(0 49 23)"><text x="0" y="32" font-family="Virgil, Segoe UI Emoji" font-size="36px" fill="#862e9c" text-anchor="start" style="white-space: pre;" direction="ltr">Client</text></g><g transform="translate(420.3193260120379 612.0293446496548) rotate(0 146.5 23)"><text x="0" y="32" font-family="Virgil, Segoe UI Emoji" font-size="36px" fill="#5c940d" text-anchor="start" style="white-space: pre;" direction="ltr">Python Executor</text></g><g transform="translate(441.15265934537115 390.3626779829882) rotate(0 210 23)"><text x="0" y="32" font-family="Virgil, Segoe UI Emoji" font-size="36px" fill="#5c940d" text-anchor="start" style="white-space: pre;" direction="ltr">Python interpreter heap</text></g><g transform="translate(545.3193260120379 167.02934464965483) rotate(0 106 23)"><text x="0" y="32" font-family="Virgil, Segoe UI Emoji" font-size="36px" fill="#364fc7" text-anchor="start" style="white-space: pre;" direction="ltr">Rust server</text></g><g transform="translate(606.1526593453713 808.6960113163215) rotate(0 136.5 18)"><text x="0" y="25" font-family="Virgil, Segoe UI Emoji" font-size="28px" fill="#5c940d" text-anchor="start" style="white-space: pre;" direction="ltr">Python heap access</text></g><g transform="translate(941.1526593453713 695.5293446496548) rotate(0 128.5 36)"><text x="0" y="25" font-family="Virgil, Segoe UI Emoji" font-size="28px" fill="#364fc7" text-anchor="start" style="white-space: pre;" direction="ltr">Rust Py object in </text><text x="0" y="61" font-family="Virgil, Segoe UI Emoji" font-size="28px" fill="#364fc7" text-anchor="start" style="white-space: pre;" direction="ltr">memory acess</text></g><g transform="translate(1389.4859926787044 988.8626779829882) rotate(0 90.49999999999994 18)"><text x="0" y="25" font-family="Virgil, Segoe UI Emoji" font-size="28px" fill="#862e9c" text-anchor="start" style="white-space: pre;" direction="ltr">Http request</text></g></svg>